<?xml version="1.0" encoding="utf-8"?>
<!-- Generator: Adobe Illustrator 25.0.0, SVG Export Plug-In . SVG Version: 6.00 Build 0)  -->
<svg version="1.1" id="Layer_1" xmlns="http://www.w3.org/2000/svg" xmlns:xlink="http://www.w3.org/1999/xlink" x="0px" y="0px"
	 viewBox="0 0 4000 4000" style="enable-background:new 0 0 4000 4000;" xml:space="preserve">
<style type="text/css">
	.st0{fill:#FFFFFF;}
	.st1{fill:#0094FF;stroke:#000075;stroke-width:70;stroke-miterlimit:10;}
</style>
<g>
	<g>
		<path class="st0" d="M2890.4,1551.1c82.6,3.1,159.7-14.1,231.2-51.7c74.4-24.2,138.8-65.6,193.1-124.1
			c58.5-54.3,99.9-118.7,124.1-193.1c37.6-71.5,54.8-148.6,51.7-231.2c-7.1-53.2-14.3-106.3-21.4-159.5
			c-28.5-101.6-79.9-189.9-154.3-264.8c-40.5-31.3-81-62.5-121.4-93.8c-93.6-54.3-194.5-81.6-302.8-81.9
			c-82.6-3.1-159.7,14.1-231.2,51.7c-74.4,24.2-138.8,65.6-193.1,124.1c-58.5,54.3-99.9,118.7-124.1,193.1
			c-37.6,71.5-54.8,148.6-51.7,231.2c7.1,53.2,14.3,106.3,21.4,159.5c28.5,101.6,79.9,189.9,154.3,264.8
			c40.5,31.3,81,62.5,121.4,93.8C2681.1,1523.4,2782.1,1550.8,2890.4,1551.1L2890.4,1551.1z"/>
	</g>
</g>
<g>
	<g>
		<path class="st0" d="M1007.1,2259.8c-13.8,24.5-29.3,47.9-46.4,70.2c31.3-40.5,62.5-81,93.8-121.4
			c-30.3,39.2-65.6,74.5-104.8,104.9c40.5-31.3,81-62.5,121.4-93.8c-17.2,13.2-35.1,27.1-55.2,35.6c47.8-20.2,95.6-40.3,143.3-60.5
			c-6,2.4-12,4.2-18.4,5.2c53.2-7.1,106.3-14.3,159.5-21.4c-4,0.5-8,0.6-12.1,0.2c53.2,7.1,106.3,14.3,159.5,21.4
			c-3.5-0.5-6.8-1.3-10.1-2.7c47.8,20.2,95.6,40.3,143.3,60.5c-2.7-1.2-5.3-2.7-7.7-4.4c40.5,31.3,81,62.5,121.4,93.8
			c-6.2-4.8-11.1-11-16.7-16.5c-1.3-1.3-2.6-2.5-4-3.7c-0.3-0.3-0.7-0.6-1-0.8c-40.5-31.3-81-62.5-121.4-93.8
			c-0.7-0.5-1.4-1.1-2.1-1.6c-1.6-1.1-3.4-2-5.1-2.9c-3.3-1.7-141-59.9-144.5-61c-1.1-0.3-2.1-0.7-3.2-0.9
			c-79.8-25-159.5-28.6-239.3-10.7c-79.8,3.6-154.2,27.4-223.1,71.2c-69.9,37.7-126,89.2-168.3,154.5c-53,57.9-88.8,126-107.4,204
			c-7.1,53.2-14.3,106.3-21.4,159.5c0.3,108.3,27.6,209.2,81.9,302.8c31.3,40.5,62.5,81,93.8,121.4
			c74.9,74.4,163.1,125.8,264.8,154.3c1.3,0.3,2.5,0.7,3.8,1.2c-47.8-20.2-95.6-40.3-143.3-60.5c2.9,1.2,5.4,2.8,7.8,4.7
			c-40.5-31.3-81-62.5-121.4-93.8c4.2,3.5,7.9,7.5,11.6,11.6c1.6,1.7,3.2,3.4,4.8,5c38.8,37.3,83.3,70.1,127.7,99.1
			c1.3,0.8,2.5,1.6,3.8,2.3c0.5,0.2,0.9,0.5,1.4,0.7c47.8,21.4,96,41.8,144.7,61.1c2.4,0.9,4.7,1.7,7.1,2.2
			c153.3,30.6,182.6,27.9,335.5,0.1c5.8-1.1,11.3-2.8,16.8-5c13.6-5.3,103.6-40.2,150.8-63.9c2.9-1.5,5.8-3.1,8.7-4.8
			c11.3-6.7,21.9-14.5,32.4-22.4c50.9-38.1,102.7-76.1,151.1-117.6c9.6-8.2,18.9-16.8,28-25.7c18.9-18.5,36.5-38.3,52.7-59.1
			c35.2-45.2,71.9-90.5,105.7-137.3c4.2-5.8,8.3-11.7,12.2-17.6c8.3-12.4,16-25.1,23.3-38c43.8-68.9,67.6-143.2,71.2-223.1
			c17.9-79.8,14.3-159.5-10.7-239.3c-18.6-78.1-54.4-146.1-107.4-204c-42.3-65.3-98.4-116.8-168.3-154.5
			c-47.8-20.2-95.6-40.3-143.3-60.5c-106.3-28.6-212.7-28.6-319,0c-47.8,20.2-95.6,40.3-143.3,60.5
			C1132.2,2097.8,1060.4,2169.6,1007.1,2259.8L1007.1,2259.8z"/>
	</g>
</g>
<g>
	<g>
		<path class="st0" d="M1685.3,2253.7c-9.1,69-21.6,137.5-37.6,205.3c-15.8,67.3-34.7,134-57.6,199.2c-11.6,33-25.4,65.9-48.1,92.9
			c-4.9,5.9,3.5,14.4,8.5,8.5c20.5-24.5,34.3-53.2,45.6-82.9c12.1-31.9,22.1-64.6,31.9-97.2c20.3-68.1,37.1-137.3,50.3-207.1
			c7.5-39.4,13.7-78.9,18.9-118.7c0.4-3.2-3.1-6-6-6C1687.7,2247.6,1685.7,2250.5,1685.3,2253.7L1685.3,2253.7z"/>
	</g>
</g>
<path class="st1" d="M979.5,1636.8c15.3-5.9,30.7-11.8,46-17.8c1.4,0.5,2.7,1.5,4.1,1.5c249.7-5.7,499.3-11.5,749-17
	c36.5-0.8,73.2-1.7,109.6,0.4c49.8,2.9,98.3,14.6,124.6,62c50.9,92.1,100.9,184.8,147.2,279.2c77.8,158.5,144.2,321.8,194.5,491.1
	c19.5,65.6,38.8,132.6,46,200.2c13.1,124.2-18.2,243.4-62.1,358.7c-102.9,270.6-260.4,507.8-447,727.2
	c-37.3,43.9-82.7,61.8-139.1,52.5c-80.9-13.4-162.4-24.4-242.7-41c-201.1-41.7-395.7-103.6-579.1-197.8
	c-169-86.8-305.6-205.7-380.6-384.8c-52.8-126-107.2-251.5-153.8-379.8c-50.2-138.3-86.1-280.9-111.2-426.4
	c-10.4-60.4,8.7-106.2,50.9-144c158.4-141.7,317.6-282.4,477-422.8C867.5,1730.1,923.9,1683.9,979.5,1636.8z M1297.8,2754.5
	c-73-29.1-145.1-57.8-217.1-86.6c-17.3-6.9-34-15.9-51.9-20.8c-84.6-23.2-171.7,23.4-203.5,107.8c-30.5,80.8,4.9,168.5,85.8,206.1
	c130,60.6,260.7,119.6,391.2,179.1c103.8,47.4,197.6,10.6,241.4-94.8c32.1-77.2,63.6-154.7,95.8-232c72.2-173,144.3-346.1,217-518.9
	c18.7-44.4,21.7-88.9,1.1-132.4c-32.7-68.8-89.6-103.6-164.9-102.5c-73.7,1.2-124.5,39.3-152.6,108
	c-41.8,102.3-84.3,204.4-126.5,306.6C1373.7,2570.8,1333.8,2667.4,1297.8,2754.5z"/>
<path class="st1" d="M3067,222c10.8,3.3,21.6,6.7,32.4,10c0.5,0.9,0.8,2,1.6,2.6c137.4,103.3,274.9,206.5,412.2,309.9
	c20.1,15.1,40.3,30.3,59.1,46.9c25.7,22.8,47,49.8,40.9,86.6c-11.7,71.5-24.2,142.9-39.4,213.7c-25.5,118.8-59.2,235.4-104.1,348.4
	c-17.4,43.8-35.5,88.2-60.5,127.8c-45.8,72.7-113.6,123.8-186.4,167.5c-170.9,102.4-357.1,163.6-551.5,202.8
	c-38.9,7.8-71-1.8-97.6-30.9c-38-41.7-77.4-82.4-113.7-125.6c-91-108.3-169.8-224.6-228.8-353.7c-54.4-118.9-77.6-241.4-41.8-370.2
	c25.1-90.6,49.2-181.6,78.7-270.8c31.8-96.1,73.1-188.6,121.5-277.9c20.1-37.1,49.9-53.7,88.9-56.1c146-9.1,292-17.4,438-25.4
	C2966.7,224.7,3016.9,223.8,3067,222z M2762.9,961.8c-27.1-46.8-53.8-93.1-80.5-139.3c-6.4-11.1-11.6-23.1-19.2-33.3
	c-35.8-48.6-102.8-60.5-156-28.4c-50.9,30.7-69.1,93.2-41.4,148c44.5,88.1,90,175.7,135.2,263.5c36,69.9,102.3,89.9,170.9,51.6
	c50.3-28.1,100.3-56.5,150.6-84.6c112.7-62.8,225.5-125.6,338.4-188.1c29-16,49.6-38.8,57-71.1c11.6-51.1-4.3-94.2-45.5-125.6
	c-40.4-30.8-84.1-31.8-128.5-6.6c-66.2,37.5-132.7,74.6-199,111.8C2882.2,894.9,2819.5,930.1,2762.9,961.8z"/>
</svg>
