<?xml version="1.0" encoding="utf-8"?>
<!-- Generator: Adobe Illustrator 25.0.0, SVG Export Plug-In . SVG Version: 6.00 Build 0)  -->
<svg version="1.1" id="Layer_1" xmlns="http://www.w3.org/2000/svg" xmlns:xlink="http://www.w3.org/1999/xlink" x="0px" y="0px"
	 viewBox="0 0 4000 4000" style="enable-background:new 0 0 4000 4000;" xml:space="preserve">
<style type="text/css">
	.st0{fill:#FDD100;}
	.st1{fill:#257FD8;}
	.st2{fill:#00006D;}
	.st3{fill:#000072;}
	.st4{fill:#A5A4A4;}
	.st5{fill:#FFFFFF;}
	.st6{fill:#DBDBDB;}
	.st7{opacity:0.3;}
	.st8{fill:#3993FF;}
	.st9{opacity:0.6;}
</style>
<g>
	<g>
		<g>
			<path class="st0" d="M2639.1,1723.2c0,0-380.5,62.4-722.7,228.1c-342.1,165.7-626.9,425.7-626.9,425.7
				c-130.5-305.4-153.3-502.9-153.3-502.9c282.3-314.9,781.3-556.6,1203.3-582.9C2339.6,1291.2,2480.4,1431.6,2639.1,1723.2"/>
		</g>
		<g>
			<path class="st0" d="M1136.2,1874.1c0,0,22.8,197.5,153.3,502.9c-517-108.3-1004,252.8-1033.9,275.5c0.6-0.6,0.9-1.4,1.1-2.3
				c54.2-282.9,202.4-495.2,424.7-602.9c107.3-51.9,231.7-79.6,371.3-79.1c3.4,0,5.7-3.4,4.4-6.6c-0.1-0.3-0.2-0.6-0.4-0.9
				c1.5,3.3,6,3.7,8.2,0.8C1086.8,1931.8,1110.6,1902.7,1136.2,1874.1"/>
		</g>
		<g>
			<path class="st0" d="M3496.6,1082.6c-39.1,10.2-622.6,169.2-857.5,640.7c-158.7-291.7-299.6-432-299.6-432
				c38.3-2.4,76-3,112.9-1.7c3.7,0.1,6.1-3.7,4.4-6.9c-7.3-14.1-25.3-48.3-52.9-95.2c28,47.6,46.2,82,53.3,95.8
				c1.6,3.1,5.8,3.4,8,0.7c264.9-337.2,650.1-398.8,1029-201.9C3495,1082.4,3495.8,1082.6,3496.6,1082.6"/>
		</g>
		<g>
			<path class="st1" d="M2639.1,1723.2c0,0-380.5,62.4-722.7,228.1c-342.1,165.7-626.9,425.7-626.9,425.7
				c-130.5-305.4-153.3-502.9-153.3-502.9c282.3-314.9,781.3-556.6,1203.3-582.9C2339.6,1291.2,2480.4,1431.6,2639.1,1723.2"/>
		</g>
		<g>
			<path class="st1" d="M1136.2,1874.1c0,0,22.8,197.5,153.3,502.9c-517-108.3-1004,252.8-1033.9,275.5c0.6-0.6,0.9-1.4,1.1-2.3
				c54.2-282.9,202.4-495.2,424.7-602.9c107.3-51.9,231.7-79.6,371.3-79.1c3.4,0,5.7-3.4,4.4-6.6c-0.1-0.3-0.2-0.6-0.4-0.9
				c1.5,3.3,6,3.7,8.2,0.8C1086.8,1931.8,1110.6,1902.7,1136.2,1874.1"/>
		</g>
		<g>
			<path class="st1" d="M3496.6,1082.6c-39.1,10.2-622.6,169.2-857.5,640.7c-158.7-291.7-299.6-432-299.6-432
				c38.3-2.4,76-3,112.9-1.7c3.7,0.1,6.1-3.7,4.4-6.9c-7.3-14.1-25.3-48.3-52.9-95.2c28,47.6,46.2,82,53.3,95.8
				c1.6,3.1,5.8,3.4,8,0.7c264.9-337.2,650.1-398.8,1029-201.9C3495,1082.4,3495.8,1082.6,3496.6,1082.6"/>
		</g>
		<g>
			<path class="st2" d="M2655.4,1752.8c-3.3,1.8-7,3.1-10.8,3.7c-3.8,0.6-379.9,63.7-713.4,225.2
				c-333.7,161.7-616,417.6-618.9,420.2c-8.1,7.4-19.2,10.4-29.9,8.1c-10.7-2.3-19.6-9.7-23.9-19.7
				c-130.9-306.4-154.9-504-155.8-512.3c-1.1-9.6,2-19.2,8.4-26.4c289.4-322.9,793.7-567.2,1226.4-594.1c9.6-0.6,19.1,3,25.9,9.8
				c5.9,5.9,146.2,147.2,305.4,439.8c5.2,9.6,5.5,21.2,0.7,31C2666.4,1744.4,2661.4,1749.5,2655.4,1752.8z M1799.1,1974.1
				c33.4-18.4,67.7-36.2,102.6-53.2c276-133.7,572.1-200.2,685.1-222.4c-120.8-213.5-228-336.9-260.8-372.5
				c-407.7,30.3-877.5,257.9-1154,559c7.6,47.8,38,208.3,130.7,435.5C1378.9,2255.2,1568.4,2101.1,1799.1,1974.1z"/>
		</g>
		<g>
			<path class="st2" d="M1305.8,2406.6c-7,3.8-15.2,5.2-23.2,3.5c-503.9-105.6-986.2,254-1006.5,269.3c-14,10.6-33.9,8.7-45.6-4.5
				c-8.8-9.9-10.8-23.6-6.1-35.2c56.8-291,213.9-512.2,442.4-622.8c109.3-52.9,233.3-80.6,368.7-82.4c2.4-1.9,5.1-3.6,8.1-4.9
				c1.4-0.6,2.7-1.1,4.1-1.4c19.8-26,41-51.7,63.4-76.6c8.9-9.9,22.7-13.7,35.4-9.6c12.7,4,21.8,15.1,23.3,28.3
				c0.3,2.7,24.4,197.6,150.8,493.5c4.9,11.6,3,25-4.9,34.7C1312.9,2401.8,1309.5,2404.5,1305.8,2406.6z M407.7,2516.3
				c48.5-26.7,105.6-55.2,169.2-81.9c231.5-96.9,452.5-130.9,657.8-101.4c-69.5-172.5-103.5-305.3-119.4-381.9
				c-8,10.1-15.7,20.2-23.2,30.4c-4.2,5.7-9.9,10.1-16.3,12.8c-6.6,5-14.8,7.7-23.4,7.6c-131.6-0.4-251.6,25.1-356.2,75.8
				c-191.5,92.7-324.2,263.7-387.5,497.4C335.5,2558,368.8,2537.8,407.7,2516.3z M223.4,2645.1
				C223.4,2645.1,223.4,2645.1,223.4,2645.1C223.4,2645.1,223.4,2645.1,223.4,2645.1z M231.2,2629.1L231.2,2629.1L231.2,2629.1z
				 M1025.7,1974.1c0.1,0.3,0.2,0.5,0.3,0.8L1025.7,1974.1z M1052.5,1934.4c0.1,0,0.2,0,0.4,0
				C1052.7,1934.4,1052.6,1934.4,1052.5,1934.4z M1037.8,1941.4c-0.1,0.1-0.1,0.2-0.2,0.2
				C1037.7,1941.5,1037.8,1941.4,1037.8,1941.4z"/>
		</g>
		<g>
			<path class="st2" d="M2655.4,1752.8c-4.7,2.6-10.1,4.1-15.7,4.2c-12.6,0.2-24.3-6.6-30.3-17.6
				c-154.1-283.1-292.4-422.9-293.8-424.3c-9.4-9.4-12.4-23.4-7.7-35.8c4.7-12.4,16.2-21,29.5-21.8c22.4-1.4,44.6-2.2,66.3-2.4
				c-7.9-14.3-17.6-31.4-28.9-50.6c-9.4-16.1-4.1-36.8,12-46.2c16.4-9.5,36.8-4.1,46.2,12c13.5,23,24.7,42.8,33.5,58.7
				c266.7-311.4,652-378.6,1039.7-178.7c12,3.6,21.4,13.7,23.6,26.7c2.9,17.3-7.8,33.9-24.8,38.4c-24.6,6.4-606.5,162.7-835.8,623
				C2666.3,1744.6,2661.3,1749.6,2655.4,1752.8z M2412.9,1322.6c50.2,59.9,133.4,168.9,225.7,330.4
				c103.9-179,267.2-331.1,486.3-452.6c1.5-0.9,3.1-1.7,4.6-2.6c107.6-59.2,206.8-98.5,273.8-121.6
				c-349.1-149.7-678-68.7-911.5,228.6c-5.1,6.6-12.1,11.2-19.9,13.4c-6.2,3.5-13.3,5.4-20.6,5.1
				C2438.7,1322.8,2425.9,1322.6,2412.9,1322.6z M3509.3,1051.7c0.2,0.1,0.4,0.2,0.6,0.3C3509.6,1051.9,3509.4,1051.8,3509.3,1051.7
				z M2426.8,1298c0,0.1,0.1,0.2,0.1,0.2C2426.9,1298.1,2426.8,1298,2426.8,1298z"/>
		</g>
		<g>
			<path class="st3" d="M259.5,2692.5c-15.2,8.3-34.5,3.9-44.3-10.7c-10.2-15.1-6.6-35.5,8.1-46.2l0.7-0.6l40.9,53.8l-3.1,2.3
				C261.1,2691.6,260.3,2692.1,259.5,2692.5z"/>
		</g>
		<g>
			<path class="st3" d="M3528,1111.4l-10.1-3.6c-8.9-1.1-17.4-5.8-23.1-13.7c-11-15.1-7.6-36.2,7.5-47.2c2.2-1.6,4.6-2.9,7.2-4
				l3.6-2.3l6.2-0.4l6.9-1.6l5.8,2.2c7.6,1.8,14.7,6.2,19.6,13.1c11,15.1,7.6,36.2-7.5,47.2c-1,0.8-2.1,1.5-3.3,2.1L3528,1111.4z
				 M3522.2,1074.3L3522.2,1074.3L3522.2,1074.3z"/>
		</g>
		<g>
			<path class="st4" d="M2577.1,3180.1l-1.5-3.4C2575.7,3176.7,2575.9,3177.9,2577.1,3180.1"/>
		</g>
		<g>
			<path class="st5" d="M2264.6,2578c-9.3-3-18.4-6.2-27.5-9.6C2245.5,2570.7,2254.6,2573.9,2264.6,2578"/>
		</g>
		<g>
			<path class="st4" d="M2575.7,3176.7c0,0,0.2,1.2,1.5,3.4L2575.7,3176.7z"/>
		</g>
		<g>
			<path class="st4" d="M2577.1,3180.1l-1.5-3.4C2575.7,3176.7,2575.9,3177.9,2577.1,3180.1"/>
		</g>
		<g>
			<polygon class="st6" points="2577.1,3049 2504.1,3087.3 2037.1,2196.5 1611.9,1385.7 1684.9,1347.4 2131.4,2199 			"/>
		</g>
		<g class="st7">
			<g>
				<g>
					<path class="st3" d="M2131.4,2198.9c-35.9-3.3-68.5-3.3-94.3-2.4l-425.2-810.8l73-38.3L2131.4,2198.9z"/>
				</g>
			</g>
		</g>
		<g>
			<path class="st2" d="M2611.3,3059.7l-117.8,61.8L1577.7,1375l117.8-61.8L2611.3,3059.7z M2514.8,3053l28.1-14.7l-868.7-1656.7
				l-28.1,14.7L2514.8,3053z"/>
		</g>
		<g>
			<path class="st0" d="M3084.7,3233.4c60.2,114.8,15.9,256.7-99,316.8c-115.1,60.3-257.4,14.2-317.7-100.9L2463,3058.2
				c-16.7-31.8-4.4-71.2,27.4-87.9c31.8-16.7,71.2-4.4,87.9,27.4l206.1,393.1c26.8,51.1,90,70.8,141,44c51.1-26.8,70.8-89.9,44-141
				c-2.4-4.7-5.2-9.1-8.2-13.2c-23.2-31.7-13.5-76.5,21.3-94.7l1.7-0.9c28.4-14.9,63.5-6.8,82.4,19.1
				C3073.2,3213.3,3079.3,3223.1,3084.7,3233.4"/>
		</g>
		<g>
			<path class="st3" d="M3006.6,3577.4c-1.7,0.9-3.4,1.8-5.1,2.8c-131,68.6-294,17-363.3-115.1l-205.1-391.1
				c-12.3-23.4-14.7-50.1-6.8-75.4c7.9-25.2,24.9-45.9,48.5-58.1c23.4-12.3,50.1-14.7,75.3-6.8c25.2,7.9,45.8,25.1,58.1,48.5
				l206.1,393.1c18.1,34.5,60.9,47.9,95.4,29.8c16.8-8.9,29-23.5,34.7-41.5c5.6-18,3.9-37.2-4.9-53.9c-1.6-3.1-3.5-6.2-5.6-9
				c-17-23.3-23.1-52.7-16.6-80.6c6.4-27.5,24.6-51.1,49.4-63.9l1.7-0.9c43-22.5,96.9-10,125.4,29.2c7.7,10.6,14.7,21.8,20.7,33.4
				c33.3,63.5,39.9,136.2,18.5,204.6C3112.3,3489,3067.5,3543.9,3006.6,3577.4z M2505.5,3000.6c-7.1,3.9-12.3,10.3-14.7,18.1
				c-2.5,8-1.7,16.4,2.2,23.9l205.1,391.1c52,99.1,174,138,272.1,86.7c47.6-24.9,82.5-66.8,98.5-118c16-51.2,11.1-105.6-13.8-153.1
				l0,0c-4.5-8.7-9.8-17.1-15.5-25c-8.9-12.3-25.8-16.2-39.4-9.1l-1.7,0.9c-7.7,3.9-13,10.9-15,19.4c-2,8.8-0.1,18,5.3,25.4
				c4,5.5,7.7,11.4,10.9,17.4c17.2,32.7,20.5,70.2,9.5,105.4s-35,64.3-67.8,81.3c-67.5,35.4-151.2,9.3-186.7-58.2l-206.1-393.1
				c-3.9-7.4-10.4-12.8-18.4-15.3c-8-2.5-16.4-1.7-23.9,2.2C2505.9,3000.4,2505.7,3000.5,2505.5,3000.6z"/>
		</g>
		<g>
			<path class="st8" d="M3084.7,3233.4c60.2,114.8,15.9,256.7-99,316.8c-115.1,60.3-257.4,14.2-317.7-100.9L2463,3058.2
				c-16.7-31.8-4.4-71.2,27.4-87.9c31.8-16.7,71.2-4.4,87.9,27.4l206.1,393.1c26.8,51.1,90,70.8,141,44c51.1-26.8,70.8-89.9,44-141
				c-2.4-4.7-5.2-9.1-8.2-13.2c-23.2-31.7-13.5-76.5,21.3-94.7l1.7-0.9c28.4-14.9,63.5-6.8,82.4,19.1
				C3073.2,3213.3,3079.3,3223.1,3084.7,3233.4"/>
		</g>
		<g>
			<g>
				<g>
					<path class="st1" d="M3084.7,3233.4c60.2,114.8,15.9,256.7-99,316.8c-115.1,60.3-257.3,14.2-317.7-100.9l-205-391.1
						c-13.1-24.9-8.4-54.3,9.4-74c5-5.5,11-10.2,18-13.9l0.8-0.4c31.6-16.1,70.5-3.7,87,27.8l206.1,393.1c2.3,4.5,5,8.7,7.8,12.7
						c29.9,41.5,86.5,55.8,133.2,31.3c30.2-15.8,49.4-44.3,54.5-75.4c49.2-37.9,80.2-93,88.9-152
						C3074.7,3215.6,3079.9,3224.3,3084.7,3233.4"/>
				</g>
			</g>
		</g>
		<g>
			<path class="st8" d="M2792.2,3403.6c-68-13.5-129.7-56.8-164.4-122.9l-155.4-296.5c5-5.5,11-10.2,18-13.9l0.8-0.4
				c31.6-16.1,70.5-3.7,87,27.8l206.1,393.1C2786.7,3395.3,2789.3,3399.6,2792.2,3403.6"/>
		</g>
		<g>
			<path class="st2" d="M3002.5,3570c-1.6,0.9-3.3,1.8-5,2.7c-126.9,66.5-284.8,16.4-351.9-111.6L2440.6,3070
				c-11.2-21.4-13.4-45.9-6.2-68.9c7.2-23.1,22.8-42.1,44.3-53.1c21.4-11.2,45.9-13.4,68.9-6.2c23.1,7.2,41.9,22.9,53.1,44.3
				l206.1,393.1c20.3,38.6,68.2,53.6,106.8,33.3c0.5-0.3,1-0.5,1.5-0.8c18-9.9,31.2-26.1,37.3-45.7c6.3-20.2,4.4-41.6-5.4-60.3
				c-1.8-3.5-3.9-6.9-6.2-10c-15.6-21.3-21.1-48.2-15.2-73.7c5.8-25.1,22-46.6,45.2-58.4l1.7-0.9c39.3-20.6,88.6-9.1,114.6,26.7
				c7.4,10.3,14.2,21.1,20.1,32.4l0,0c32.3,61.5,38.6,131.9,17.9,198.2C3104.9,3484.4,3061.5,3537.5,3002.5,3570z M2501.4,2993.2
				c-9,5-15.7,13.1-18.7,22.9c-3.2,10.1-2.2,20.9,2.7,30.3l205.1,391.1c54.1,103.2,181.3,143.7,283.5,90.2
				c49.4-25.9,86-69.6,102.7-123c16.7-53.4,11.6-110.1-14.4-159.6l0,0c-4.7-9-10.2-17.8-16.2-26.1c-11.4-15.6-32.9-20.6-50.1-11.6
				l-1.7,0.9c-9.5,5.4-16.8,14.1-19.3,25c-2.6,11.1-0.1,22.9,6.7,32.3c3.8,5.2,7.2,10.7,10.2,16.4c16.1,30.7,19.3,65.9,9,99
				c-10.3,33.1-32.6,60.2-63.6,76.3c-63.4,33.2-142,8.7-175.2-54.7l-206.1-393.1c-4.9-9.4-13.2-16.3-23.4-19.5
				c-10.1-3.2-20.9-2.2-30.3,2.7C2501.9,2993,2501.7,2993.1,2501.4,2993.2z"/>
		</g>
		<g>
			<path class="st8" d="M1074.6,598.2c-5.3,5.1-10.6,10.3-15.6,15.6l-0.7,0.7c-0.4,0.4-0.7,0.8-1,1.1c-2.8,2.9-5.5,5.8-8.2,8.8
				c-1.3,1.4-2.6,2.8-3.9,4.3c-1.3,1.4-2.5,2.8-3.8,4.3c-3.8,4.3-7.6,8.7-11.3,13.2c-1.4,1.6-2.6,3.1-3.9,4.7
				c-1.7,2.2-3.4,4.3-5.1,6.4c-0.6,0.8-1.2,1.5-1.8,2.3c-1.4,1.8-2.8,3.6-4.2,5.5c-3.4,4.4-6.7,8.9-10,13.4
				c-4.8,6.8-9.6,13.8-14.1,20.8c-0.5,0.8-1.1,1.7-1.6,2.5c-2,3.1-4,6.3-5.9,9.4c-3.9,6.3-7.6,12.6-11.3,19.1c-1.2,2-2.3,4-3.4,6
				c-0.1,0.2-0.2,0.3-0.3,0.5c-0.1,0.2-0.3,0.6-0.4,0.8c-2.5,4.5-4.9,8.9-7.2,13.5c-2.5,4.8-5,9.6-7.3,14.5c-1.5,3.1-3,6.1-4.4,9.2
				c-1.4,3.1-2.9,6.2-4.3,9.3c0,0.1-0.1,0.2-0.1,0.3c-1.2,2.5-2.2,5.1-3.3,7.6c-3.4,7.9-6.7,15.8-9.8,23.8
				c-4.2,10.7-8.1,21.5-11.7,32.5c-1.4,4.4-2.9,8.7-4.2,13.1c-0.1,0-0.1,0.1-0.1,0.2c-1.6,5.1-3.2,10.3-4.6,15.5
				c-1.3,4.1-2.4,8.3-3.5,12.5c-1.2,4.2-2.3,8.4-3.4,12.7c-0.4,1.8-0.9,3.7-1.4,5.5c-0.7,2.9-1.4,5.7-2.1,8.6
				c-1.9,8-3.7,16.2-5.4,24.4c-0.9,4.3-1.8,8.6-2.6,13l-0.3,1.5c-1.1,5.8-2.1,11.7-3.1,17.5c-0.1,0.4-0.2,0.8-0.2,1.1
				c-1,6.3-2.1,12.7-3,19.1c-0.4,2.6-0.8,5.1-1.1,7.6c-0.4,2.5-0.7,4.9-1,7.4c-0.7,4.9-1.2,9.8-1.8,14.7c-0.7,5.8-1.3,11.6-1.9,17.5
				c-0.1,1.1-0.2,2.1-0.3,3.2c-0.3,3-0.6,6-0.8,8.9c-0.2,2.5-0.5,4.9-0.6,7.4c-0.3,2.5-0.4,5-0.6,7.4c-0.4,5-0.7,9.9-1,14.9
				c-0.3,5-0.6,10-0.8,15c-0.3,5-0.5,10-0.6,15c-0.2,5-0.3,10-0.5,14.9c-0.1,4.5-0.2,9-0.3,13.6c-0.1,4.5-0.1,9.1-0.1,13.5
				c-0.1,6.4,0,12.9,0.1,19.3c0,0.1,0,0.3,0,0.5c0,4.7,0.1,9.4,0.3,14c0,3.2,0.1,6.3,0.2,9.4c0.1,3.7,0.2,7.4,0.4,11
				c0.2,4.5,0.3,9,0.5,13.5c0.4,7.7,0.8,15.5,1.3,23.2c0.1,2.2,0.3,4.3,0.4,6.6c0.5,7.6,1,15.3,1.7,22.9c0.7,8.6,1.5,17.2,2.3,25.8
				c0.1,1.8,0.4,3.6,0.5,5.4c0.7,7,1.5,14,2.2,21.1c0.7,6.4,1.5,12.8,2.3,19.2c1.6,13.4,3.5,26.6,5.3,39.8
				c0.9,6.1,1.8,12.2,2.8,18.2c0.7,4.7,1.4,9.2,2.2,13.8c0.6,3.8,1.2,7.7,1.9,11.5c0.5,3,1,5.9,1.5,8.8c0.9,5.2,1.8,10.4,2.8,15.7
				c0.9,5.3,1.9,10.5,2.9,15.6c0.5,2.4,0.9,4.8,1.4,7.3c2.4,12.8,4.9,25.4,7.6,37.8c0.1,0.3,0.1,0.6,0.2,0.9
				c1.5,7.3,3.1,14.6,4.7,21.8c1.7,7.7,3.5,15.3,5.2,23c0.9,4,1.8,8.1,2.8,12c2.1,9.2,4.4,18.3,6.6,27.3c2.6,10.5,5.3,20.9,8,31.1
				c2.4,8.9,4.7,17.6,7,26.1c0.9,3.1,1.7,6.2,2.6,9.2c0.8,3.1,1.7,6.2,2.6,9.2c1,3.6,2.1,7.3,3.1,10.8l1,3.6
				c1.2,4.2,2.4,8.3,3.6,12.3c1.4,5.1,3,10.1,4.4,15.1c3.1,10.5,6.3,20.7,9.4,30.7c0.7,2.4,1.4,4.8,2.2,7.1c0.3,0.9,0.6,1.8,0.8,2.6
				c2.4,7.6,4.8,15.1,7.2,22.4c0.9,2.9,1.9,5.7,2.8,8.5c4.3,13,8.5,25.4,12.6,37.2c1.4,4.2,2.8,8.2,4.3,12.2c3,8.8,6.1,17.2,9,25.3
				c1.1,3,2.2,6,3.2,8.9c1,2.9,2.1,5.7,3.1,8.5c1.4,3.9,2.8,7.6,4.2,11.3c2,5.1,3.9,10,5.7,14.6c2.5,6.7,5,12.8,7.2,18.4
				c0.6,1.7,1.3,3.3,1.9,4.8c0.3,0.8,0.7,1.7,1,2.5c0.9,2.3,1.8,4.4,2.6,6.4c0.6,1.4,1.1,2.8,1.7,4.1c0.8,2,1.6,4,2.3,5.7
				c0.2,0.6,0.4,1.1,0.7,1.6c0.8,2,1.6,3.9,2.3,5.6c0.3,0.7,0.6,1.5,0.9,2.2c0.6,1.3,1.1,2.6,1.6,3.6c0.1,0.4,0.3,0.8,0.5,1.2
				c0,0.1,0,0.1,0.1,0.1c0.1,0.3,0.2,0.6,0.4,0.9c1.4,3.2-1,6.7-4.4,6.7c-141.1-0.4-266.9,27.5-375.4,80
				c-224.8,108.9-374.7,323.5-429.5,609.7c-0.1,0.9-0.5,1.7-1.1,2.3l-0.1,0c-0.7,0.5-1.1,0.9-1.3,1l-0.1,0.1
				c-2.4,1.2-5.8,0.3-6.8-2.9c-12.6-42.1-42.4-152.9-58.8-307.4C145.1,2045.7,166,1566,481,1109.5
				C722.9,758.8,957.8,638.7,1074.6,598.2"/>
		</g>
		<g>
			<path class="st1" d="M988.9,1788.8c0.3,0.9-11.7-36-11.4-35.2c2.4,7.6,4.8,15.1,7.2,22.4c0.9,2.9,1.9,5.7,2.8,8.5
				c4.3,13,8.5,25.4,12.6,37.2c1.4,4.2,2.8,8.2,4.3,12.2c3,8.8,6.1,17.2,9,25.3c1.1,3,2.2,6,3.3,8.9c1,2.9,2.1,5.7,3.2,8.5
				c1.4,3.9,2.8,7.6,4.2,11.3c2,5.1,3.9,10,5.7,14.6c2.5,6.6,5,12.8,7.2,18.4c0.6,1.6,1.3,3.3,1.9,4.8c0.3,0.8,0.6,1.7,1,2.5
				c0.9,2.3,1.8,4.4,2.6,6.4c0.6,1.4,1.1,2.8,1.7,4.1c0.8,2.1,1.6,4,2.3,5.8c0.2,0.6,0.4,1.1,0.7,1.6c0.8,2,1.6,3.9,2.3,5.6
				c0.3,0.7,0.6,1.5,0.9,2.2c0.6,1.3,1.1,2.5,1.6,3.6c0.1,0.4,0.3,0.8,0.5,1.2c0,0.1,0,0.1,0.1,0.1c0.1,0.3,0.2,0.6,0.4,0.9
				c1.4,3.2-1,6.7-4.4,6.7c-141.1-0.4-266.9,27.5-375.4,80C448,2155.2,298.2,2369.9,243.4,2656c-0.1,0.9-0.5,1.7-1.1,2.3l0,0
				c-0.7,0.5-1.1,0.9-1.3,1c0,0,0,0-0.1,0.1c-2.4,1.2-5.8,0.3-6.8-2.9c-12.6-42.1-29.2-53-45.6-207.5
				c36.4-251.5,123.3-489.1,297.9-586C709.5,1739.1,915.3,1785.1,988.9,1788.8"/>
		</g>
		<g>
			<path class="st8" d="M3525.9,1066.6c1.9,2.8,0.5,6-1.9,7.1c-0.1,0.1-0.2,0.1-0.2,0.1c-0.4,0.2-0.9,0.4-1.5,0.4c0,0-0.1,0-0.1,0
				c-0.8,0.1-1.6-0.1-2.4-0.6c-383.2-199.1-772.8-136.9-1040.6,204.2c-2.2,2.8-6.4,2.4-8-0.7c-7.1-13.9-25.5-48.8-53.9-96.9
				c-5.3-9.1-11-18.7-17.1-28.7c-1.2-2-2.4-4-3.7-6c-9.7-16-20.2-32.9-31.6-50.6c-0.7-1-1.4-2.1-2-3.2
				c-20.8-32.5-44.4-67.6-70.4-104.1c-10.5-14.9-21.4-29.8-32.8-45.1c-0.7-1-1.4-1.9-2.1-2.9c-11.6-15.5-23.6-31.1-36-46.7
				c-4-5.2-8.1-10.3-12.3-15.5c-4.4-5.6-9-11.1-13.6-16.7c-4.4-5.4-8.8-10.7-13.3-16.1c-3.6-4.3-7.2-8.5-10.9-12.8
				c-5.4-6.4-11-12.9-16.6-19.3c-24.9-28.5-51-56.8-78.2-84.2c-8.3-8.4-16.7-16.6-25.2-24.8c-11.1-10.7-22.3-21.2-33.8-31.6
				c-18.2-16.5-36.8-32.6-55.9-48.1c-4.4-3.6-8.8-7.2-13.3-10.6c-5.7-4.5-11.4-9-17.2-13.3c-5.1-3.9-10.3-7.8-15.5-11.6
				c-5.2-3.8-10.4-7.6-15.6-11.3c-15.7-11.2-31.6-21.9-47.9-32c-16.2-10.2-32.6-19.9-49.2-28.9c-22.1-12.1-44.7-23.2-67.6-33.1
				l-0.1,0c-5.7-2.5-11.4-4.9-17.2-7.2l-0.1,0c-17.3-7-34.8-13.3-52.5-18.8l-0.1,0c-5.9-1.8-11.8-3.6-17.7-5.3
				c-4.5-1.3-8.9-2.5-13.5-3.6c-4.4-1.2-9-2.3-13.4-3.4l-0.1,0c-6-1.4-12-2.7-18-3.9c-6.1-1.2-12.1-2.4-18.2-3.4
				c-6.1-1.1-12.2-2-18.3-2.8c-4.5-0.6-9-1.2-13.4-1.7c-3.3-0.4-6.7-0.8-10.1-1.1c-6.8-0.7-13.8-1.2-20.6-1.6c-3-0.2-6-0.4-8.9-0.5
				c-3.9-0.2-7.9-0.3-11.9-0.4c-6.3-0.2-12.5-0.2-18.8-0.1c-15.7,0.1-31.5,1-47.5,2.5c-6.3,0.6-12.7,1.3-19.2,2.2
				c-3.2,0.4-6.4,0.9-9.6,1.4c112.3-66.9,348.8-164,751.3-137.9C2989.5,351.2,3450.6,959.1,3525.9,1066.6"/>
		</g>
		<g>
			<path class="st8" d="M2362.7,1091.7c0.6,1.1,1.4,2.2,2,3.2c11.4,17.8,21.9,34.7,31.6,50.6c1.2,2,2.4,4,3.7,6
				c0.5,0.9,1.1,1.7,1.6,2.7c3.9,6.5,7.7,13,11.5,19.1c1.3,2.3,2.7,4.6,4,6.9c3.5,6,6.9,11.8,10.1,17.4
				c22.1,38.4,36.8,66.4,43.3,78.9c1.7,3.3-0.7,7.1-4.5,7c-37.3-1.3-75.4-0.7-114.1,1.8c-426.8,26.6-931.5,271-1216.9,589.5
				c-25.9,28.9-50,58.4-72.1,88.4c-2.2,3-6.7,2.5-8.3-0.8c0-0.1,0-0.1-0.1-0.1c-0.2-0.3-0.3-0.7-0.5-1.2c-0.5-1.1-1-2.3-1.6-3.6
				c-0.3-0.7-0.6-1.5-0.9-2.2c-0.7-1.7-1.5-3.6-2.3-5.6c-0.3-0.5-0.5-1-0.7-1.6c-0.7-1.8-1.5-3.7-2.3-5.7c-0.6-1.3-1.1-2.7-1.7-4.1
				c-0.8-2.1-1.7-4.2-2.6-6.4c-0.3-0.8-0.7-1.7-1-2.5c-0.7-1.6-1.3-3.2-1.9-4.8c-2.2-5.7-4.7-11.8-7.2-18.4
				c-1.8-4.6-3.7-9.5-5.7-14.6c-1.4-3.6-2.7-7.4-4.2-11.3c-1-2.8-2.1-5.6-3.2-8.5c-1.1-2.9-2.2-5.9-3.3-8.9c-3-8.1-6-16.5-9-25.3
				c-1.4-4-2.8-8-4.3-12.2c-4.1-11.8-8.3-24.2-12.6-37.2c-0.1-0.4-0.3-0.7-0.4-1.1c-0.8-2.4-1.6-4.9-2.5-7.4
				c-2.4-7.3-4.8-14.8-7.2-22.4c-1-3.2-2-6.5-3.1-9.7c-3.2-10-6.3-20.2-9.4-30.7c-1.5-5-3-10-4.4-15.1c-1.2-4.1-2.4-8.2-3.6-12.3
				l-1-3.6c-1.1-3.6-2.1-7.2-3.1-10.8c-0.9-3-1.7-6.1-2.6-9.2c-0.9-3-1.7-6.1-2.6-9.2c-2.3-8.6-4.7-17.3-7-26.1
				c-2.7-10.3-5.4-20.6-8-31.1c-2.2-9-4.5-18.1-6.6-27.3c-0.9-4-1.9-8-2.8-12c-1.8-7.6-3.5-15.2-5.2-23c-1.6-7.2-3.2-14.5-4.7-21.8
				c-0.1-0.3-0.2-0.6-0.2-0.9c-2.6-12.5-5.1-25.1-7.6-37.8c-0.5-2.4-0.9-4.8-1.4-7.3c-1-5.2-2-10.4-2.9-15.6
				c-1-5.2-1.9-10.4-2.8-15.7c-0.5-2.9-1-5.8-1.5-8.8c-0.7-3.8-1.3-7.6-1.9-11.5c-0.8-4.5-1.5-9.1-2.2-13.8
				c-1-6.1-1.9-12.1-2.8-18.2c-1.9-13.2-3.7-26.5-5.3-39.8c-0.8-6.4-1.5-12.8-2.3-19.2c-0.8-7-1.6-14.1-2.2-21.1
				c-0.2-1.8-0.4-3.6-0.5-5.4c-0.8-8.6-1.6-17.2-2.3-25.8c-0.6-7.6-1.2-15.3-1.7-22.9c-0.1-2.2-0.3-4.4-0.4-6.6
				c-0.5-7.7-0.9-15.5-1.3-23.2c-0.2-4.5-0.4-9-0.5-13.5c-0.1-3.7-0.2-7.3-0.4-11c-0.1-3.1-0.2-6.3-0.2-9.4c-0.1-4.7-0.2-9.4-0.3-14
				c0-0.1,0-0.3,0-0.4c-0.1-6.4-0.2-12.8-0.1-19.3c0-4.5,0-9,0.1-13.5c0-4.6,0.1-9.1,0.3-13.6c0.1-5,0.2-10,0.5-14.9
				c0.2-5,0.4-10,0.6-15c0.3-5,0.6-10,0.8-15c0.3-5,0.6-9.9,1-14.9c0.2-2.4,0.4-4.9,0.6-7.4c0.2-2.5,0.4-4.9,0.6-7.4
				c0.2-3,0.5-5.9,0.8-8.9c0.1-1,0.2-2.1,0.3-3.2c0.6-5.8,1.2-11.7,1.9-17.5c0.6-4.9,1.2-9.8,1.8-14.7c0.3-2.4,0.6-4.9,1-7.4
				c0.3-2.5,0.7-5.1,1.1-7.6c0.9-6.4,1.9-12.8,3-19.1c0.1-0.3,0.1-0.7,0.2-1.1c1-5.9,2-11.7,3.1-17.5l0.3-1.5
				c0.8-4.3,1.6-8.7,2.6-13c1.7-8.2,3.5-16.3,5.4-24.4c0.6-2.9,1.4-5.7,2.1-8.6c0.5-1.9,0.9-3.7,1.4-5.5c1.1-4.3,2.2-8.5,3.4-12.7
				c1.1-4.2,2.3-8.4,3.5-12.5c1.5-5.2,3-10.3,4.6-15.5c0-0.1,0-0.2,0.1-0.2c1.3-4.4,2.7-8.8,4.2-13.1c3.6-10.9,7.5-21.8,11.7-32.5
				c3.1-8,6.3-15.9,9.8-23.8c1.1-2.5,2.2-5.1,3.3-7.6c0-0.1,0.1-0.2,0.1-0.3c1.4-3.1,2.8-6.2,4.3-9.3c1.4-3.1,2.9-6.2,4.4-9.2
				c2.4-4.8,4.8-9.7,7.3-14.5c2.3-4.6,4.7-9.1,7.2-13.5c0.1-0.2,0.3-0.6,0.4-0.8c0.1-0.1,0.2-0.3,0.3-0.5c1.1-2,2.3-4,3.4-6
				c3.6-6.4,7.4-12.8,11.3-19.1c1.9-3.1,3.9-6.3,5.9-9.4c0.6-0.8,1.1-1.7,1.6-2.5c4.6-7,9.3-14,14.1-20.8c3.2-4.5,6.6-9,10-13.4
				c1.4-1.9,2.7-3.7,4.2-5.5c0.6-0.8,1.2-1.5,1.8-2.3c1.7-2.2,3.4-4.3,5.1-6.4c1.3-1.6,2.5-3.2,3.9-4.7c3.7-4.4,7.5-8.9,11.3-13.2
				c1.3-1.4,2.5-2.9,3.8-4.3c1.3-1.4,2.6-2.9,3.9-4.3c2.7-2.9,5.4-5.9,8.2-8.8c0.3-0.4,0.7-0.8,1-1.1l0.7-0.7
				c5.1-5.3,10.3-10.5,15.6-15.6c43.5-41.6,95.4-78.1,157-107.9c59.3-28.7,117.5-46.4,174.5-55l0.1,0c3.2-0.5,6.4-0.9,9.6-1.4
				c6.4-0.8,12.8-1.6,19.2-2.2c15.9-1.5,31.7-2.4,47.5-2.5c6.3-0.1,12.5,0,18.8,0.1c4,0.1,7.9,0.2,11.9,0.4c3,0.1,6,0.3,8.9,0.5
				c6.9,0.4,13.8,0.9,20.6,1.6c3.4,0.3,6.8,0.7,10.1,1.1c4.5,0.5,9,1.1,13.4,1.7c6.1,0.9,12.2,1.8,18.3,2.8c6.1,1,12.2,2.2,18.2,3.4
				c6,1.2,12,2.5,18,3.9l0.1,0c4.5,1,9,2.1,13.4,3.4c4.5,1.1,9,2.4,13.5,3.6c5.9,1.7,11.8,3.4,17.7,5.3l0.1,0
				c4.4,1.4,8.9,2.8,13.2,4.3c13.2,4.4,26.3,9.3,39.2,14.5l0.1,0c5.8,2.3,11.5,4.7,17.2,7.2l0.1,0c22.9,9.9,45.5,21,67.6,33.1
				c8.3,4.6,16.5,9.2,24.7,14.1c8.2,4.9,16.4,9.8,24.5,14.9c8.1,5.1,16.1,10.3,24.1,15.7c8,5.3,15.9,10.8,23.8,16.4
				c5.2,3.7,10.4,7.5,15.6,11.3c5.2,3.8,10.3,7.7,15.5,11.6c5.8,4.4,11.5,8.8,17.2,13.3c4.4,3.5,8.9,7.1,13.3,10.6
				c19,15.5,37.7,31.6,55.9,48.1c11.5,10.4,22.8,20.9,33.8,31.6c8.4,8.2,16.8,16.5,25.2,24.8c27.2,27.4,53.3,55.7,78.2,84.2
				c5.6,6.4,11.2,12.8,16.6,19.3c3.6,4.3,7.3,8.6,10.9,12.8c4.5,5.4,9,10.7,13.3,16.1c4.6,5.6,9.1,11.1,13.6,16.7
				c4.1,5.1,8.2,10.3,12.3,15.4c6.2,7.8,12.3,15.7,18.3,23.4c6,7.8,11.9,15.6,17.7,23.3c0.7,1,1.4,1.9,2.1,2.9
				c8.5,11.4,16.8,22.7,24.9,33.9c2.7,3.7,5.3,7.5,8,11.2C2318.3,1024.2,2341.9,1059.3,2362.7,1091.7"/>
		</g>
		<g>
			<path class="st1" d="M2401.7,1154.2c3.9,6.5,7.7,13,11.5,19.1c1.3,2.3,2.7,4.6,4,6.9c3.5,6,6.9,11.8,10.2,17.4
				c22.1,38.4,36.8,66.4,43.3,78.9c1.7,3.3-0.7,7.1-4.5,7c-37.3-1.3-75.4-0.7-114.1,1.8c-426.8,26.6-931.5,271-1216.9,589.5
				c-25.9,28.9-50,58.4-72.1,88.4c-2.2,3-6.7,2.5-8.3-0.8c0-0.1,0-0.1-0.1-0.1c-0.2-0.4-0.3-0.7-0.5-1.2c-0.5-1.1-1-2.3-1.6-3.6
				c-0.3-0.7-0.6-1.5-0.9-2.2c-0.7-1.7-1.5-3.6-2.3-5.6c-0.3-0.5-0.5-1-0.7-1.6c-0.7-1.8-1.5-3.7-2.3-5.7c-0.6-1.3-1.1-2.7-1.7-4.1
				c-0.8-2.1-1.7-4.2-2.6-6.4c-0.3-0.8-0.7-1.7-1-2.5c-0.7-1.6-1.3-3.2-1.9-4.8c-2.2-5.7-4.7-11.8-7.2-18.4
				c-1.8-4.6-3.7-9.5-5.7-14.6c-1.4-3.6-2.7-7.4-4.2-11.3c-1-2.8-2.1-5.6-3.2-8.5c-1.1-2.9-2.2-5.9-3.2-8.9c-3-8.1-6-16.5-9-25.3
				c-1.4-4-2.8-8-4.3-12.2c-4.1-11.8-8.3-24.2-12.6-37.2c-0.1-0.4-0.3-0.7-0.4-1.1c31.4-85,206.6-423.7,524.1-593
				C1903.5,986,2281.6,1092.1,2401.7,1154.2"/>
		</g>
		<g class="st9">
			<path class="st5" d="M1880.5,563.7c-6.7-3-13.3-5.9-20.1-8.7l-0.1,0c-6.4-2.7-13-5.4-19.5-7.8l-0.1,0
				c-14.8-5.7-29.7-11-44.7-15.8c-5-1.5-10.1-3.1-15.1-4.6l-0.1,0c-6.7-2-13.4-3.9-20.2-5.7c-5-1.3-10.2-2.7-15.3-3.8
				c-5.1-1.3-10.2-2.5-15.3-3.6l-0.1,0c-6.8-1.4-13.6-2.9-20.5-4.1c-6.9-1.3-13.9-2.5-20.9-3.5c-7-1.1-13.9-2.1-20.9-3
				c-5.1-0.6-10.2-1.2-15.3-1.7c-3.8-0.4-7.6-0.8-11.6-1.1c-7.8-0.7-15.7-1.2-23.6-1.5c-3.4-0.2-6.8-0.3-10.2-0.4
				c-4.5-0.2-9.1-0.2-13.6-0.3c-7.2-0.1-14.3,0-21.5,0.2c-18,0.4-36.1,1.6-54.4,3.6c-7.3,0.8-14.5,1.7-22,2.8
				c-3.7,0.5-7.4,1.1-11,1.7l-0.1,0c-65.5,10.6-132.3,31.5-200.6,64.9c-71,34.8-130.9,76.8-181.4,124.6
				c-6.2,5.9-12.2,11.9-18.1,17.9l-0.8,0.7c-0.4,0.4-0.8,0.9-1.2,1.3c-3.3,3.4-6.5,6.7-9.6,10c-1.5,1.6-3,3.2-4.5,4.9
				c-1.5,1.7-2.9,3.3-4.4,4.9c-4.5,5-8.9,10-13.1,15.1c-1.6,1.8-3.1,3.6-4.5,5.4c-2,2.4-4,4.9-6,7.4c-0.7,0.8-1.4,1.7-2.1,2.6
				c-1.7,2.1-3.3,4.2-4.9,6.3c-4,5-7.8,10.2-11.6,15.4c-5.7,7.8-11.2,15.7-16.5,23.7c-0.6,0.9-1.2,1.9-1.9,2.9
				c-2.3,3.5-4.6,7.1-6.8,10.7c-4.6,7.2-8.9,14.4-13.2,21.7c-1.3,2.3-2.6,4.6-3.9,6.9c-0.2,0.2-0.2,0.4-0.3,0.5
				c-0.2,0.3-0.4,0.7-0.5,0.9c-3,5.1-5.8,10.2-8.5,15.4c-3,5.4-5.8,11-8.6,16.5c-1.7,3.5-3.6,7-5.2,10.5c-1.7,3.5-3.4,7.1-5.1,10.6
				c0,0.1-0.1,0.3-0.1,0.3c-1.4,2.9-2.7,5.8-4,8.6c-4.1,8.9-7.8,18-11.5,27.1c-4.9,12.1-9.6,24.5-13.9,36.9c-1.8,4.9-3.4,9.9-5,14.9
				c0,0-0.1,0.1-0.1,0.3c-2,5.9-3.8,11.7-5.6,17.6c-1.5,4.7-2.9,9.5-4.3,14.2c-1.4,4.8-2.8,9.6-4,14.4c-0.5,2-1.1,4.2-1.7,6.3
				c-0.9,3.2-1.7,6.4-2.5,9.7c-2.3,9.1-4.5,18.4-6.5,27.6c-1.1,4.9-2.2,9.8-3.2,14.7l-0.3,1.7c-1.3,6.7-2.6,13.3-3.8,19.9
				c-0.1,0.5-0.1,0.9-0.3,1.3c-1.3,7.2-2.6,14.4-3.7,21.7c-0.5,2.9-1,5.8-1.4,8.6c-0.4,2.8-0.9,5.6-1.3,8.3
				c-0.8,5.5-1.6,11.1-2.3,16.7c-0.2,1.5-0.4,2.9-0.6,4.3c-0.1-3.1-0.1-6.3-0.2-9.4c0-0.1,0-0.3,0-0.4c-0.1-6.4-0.2-12.8-0.1-19.3
				c0-4.5,0-9,0.1-13.5c0-4.6,0.1-9.1,0.3-13.6c0.1-5,0.2-10,0.5-14.9c0.2-5,0.4-10,0.6-15c0.3-5,0.6-10,0.8-15
				c0.3-5,0.6-9.9,1-14.9c0.2-2.4,0.4-4.9,0.6-7.5c0.1-2.5,0.4-4.9,0.6-7.4c0.3-3,0.5-5.9,0.8-8.9c0.1-1,0.2-2.1,0.3-3.2
				c0.6-5.8,1.2-11.7,1.9-17.5c0.6-4.9,1.2-9.8,1.8-14.7c0.3-2.4,0.6-4.9,1-7.4c0.3-2.5,0.7-5.1,1.1-7.6c0.9-6.4,1.9-12.8,3-19.1
				c0.1-0.3,0.1-0.7,0.2-1.1c1-5.8,2-11.7,3.1-17.5l0.3-1.5c0.8-4.3,1.6-8.7,2.6-13c1.7-8.2,3.5-16.3,5.4-24.4
				c0.6-2.9,1.3-5.7,2.1-8.6c0.5-1.9,0.9-3.7,1.4-5.5c1.1-4.3,2.2-8.5,3.4-12.7c1.1-4.2,2.3-8.4,3.5-12.5c1.5-5.2,3-10.3,4.6-15.5
				c0-0.1,0-0.2,0.1-0.2c1.3-4.4,2.7-8.8,4.2-13.1c3.6-10.9,7.5-21.8,11.7-32.5c3.1-8,6.3-15.9,9.8-23.8c1.1-2.5,2.2-5.1,3.3-7.6
				c0-0.1,0.1-0.2,0.1-0.3c1.4-3.1,2.8-6.2,4.3-9.3c1.4-3.1,2.9-6.2,4.4-9.2c2.4-4.8,4.8-9.7,7.3-14.5c2.3-4.6,4.7-9.1,7.2-13.5
				c0.1-0.2,0.3-0.6,0.4-0.8c0.1-0.2,0.2-0.3,0.3-0.5c1.1-2,2.2-4,3.4-6c3.6-6.4,7.4-12.8,11.3-19.1c1.9-3.1,3.9-6.3,5.9-9.4
				c0.6-0.8,1.1-1.7,1.6-2.5c4.6-7,9.3-13.9,14.1-20.8c3.3-4.5,6.6-9,10-13.4c1.4-1.9,2.7-3.7,4.2-5.5c0.6-0.8,1.2-1.5,1.8-2.3
				c1.7-2.2,3.4-4.3,5.1-6.4c1.3-1.6,2.5-3.2,3.9-4.7c3.7-4.4,7.5-8.9,11.3-13.2c1.3-1.4,2.5-2.8,3.8-4.3c1.3-1.4,2.6-2.9,3.9-4.3
				c2.7-2.9,5.4-5.9,8.2-8.8c0.3-0.4,0.7-0.8,1-1.1l0.7-0.7c5.1-5.3,10.3-10.5,15.6-15.6c43.5-41.6,95.4-78.1,157-107.9
				c59.3-28.7,117.4-46.4,174.5-55l0,0c3.2-0.5,6.4-0.9,9.6-1.4c6.4-0.8,12.8-1.6,19.2-2.2c15.9-1.5,31.7-2.4,47.5-2.5
				c6.3-0.1,12.5,0,18.8,0.1c4,0.1,7.9,0.2,11.9,0.4c3,0.1,6,0.3,8.9,0.5c6.9,0.4,13.8,0.9,20.6,1.6c3.4,0.3,6.8,0.7,10.1,1.1
				c4.5,0.5,9,1.1,13.4,1.7c6.1,0.9,12.2,1.8,18.3,2.8c6.1,1,12.2,2.2,18.2,3.4c6,1.2,12,2.5,18,3.9l0.1,0c4.5,1.1,9,2.2,13.5,3.4
				c4.5,1.1,9,2.4,13.5,3.6c5.9,1.7,11.8,3.4,17.7,5.3l0.1,0c4.4,1.4,8.9,2.8,13.2,4.3c13.2,4.4,26.3,9.3,39.2,14.5l0.1,0
				c5.8,2.3,11.5,4.7,17.2,7.2l0.1,0c22.9,9.9,45.5,21,67.6,33.1c8.3,4.6,16.5,9.2,24.7,14.1c8.2,4.8,16.4,9.8,24.5,14.9
				c8,5.1,16.1,10.3,24.1,15.7C1877.7,561.7,1879.1,562.7,1880.5,563.7"/>
		</g>
		<g>
			<path class="st2" d="M2485,1312.5c-6,3.3-13,5-20.1,4.8c-35.5-1.2-72.8-0.7-110.8,1.7c-421.2,26.2-912.2,264-1193.9,578.3
				c-25,27.9-48.6,56.8-70,85.9c-7.9,10.9-21.3,16.9-34.9,15.6c-11.9-1.2-22.5-7.9-28.8-17.8l-1.4-1.9l-1.6-3.8
				c-0.2-0.5-0.4-1-0.6-1.5l-4.4-10.6c-0.4-0.9-0.8-1.8-1.2-2.8l-2-5.1c-0.6-1.3-1.1-2.6-1.6-3.9l-3.8-9.4c-0.5-1.3-1-2.5-1.5-3.8
				l-0.5-1.2c-2.3-5.8-4.8-12.1-7.4-18.9l-11-29c-0.8-2-1.5-4.1-2.3-6.2c-0.7-1.8-1.7-4.4-2.6-7.1l-0.5-1.5
				c-3-8.2-6.1-16.7-9.2-25.7c-1.4-3.7-2.8-8-4.3-12.3c-4.1-11.8-8.4-24.4-12.7-37.5l-2.9-8.7c-2.4-7.4-4.8-14.9-7.3-22.5l-3.1-9.7
				c-3.2-10.2-6.4-20.6-9.6-31.3l-0.8-2.7c-1.3-4.3-2.6-8.6-3.8-12.9l-4.6-15.8c-1-3.6-2.1-7.3-3.2-11.1c-0.8-2.8-1.7-5.9-2.6-9.1
				c-0.8-2.7-1.7-6-2.6-9.2c-2.4-8.8-4.7-17.5-7.1-26.4c-2.8-10.5-5.5-21-8.1-31.6c-2.3-9.3-4.6-18.5-6.7-27.9l-2.8-11.8
				c-1.8-7.9-3.6-15.7-5.4-23.6c-1.4-6.2-2.8-12.5-4.1-19l-0.1-0.2l-0.9-4.2c-2.6-12.4-5.1-25.1-7.6-38c-0.2-1.1-0.5-2.6-0.8-4.1
				l-1.4-7.3c-0.7-3.9-1.5-7.9-2.2-11.9c-1-5.1-1.9-10.5-2.8-16c-0.5-3-1.1-6.1-1.6-9.2c-0.4-2.2-0.8-5.1-1.3-7.9l-0.6-3.4
				c-0.8-4.5-1.5-9.3-2.3-14.3c-0.9-5.9-1.9-12.1-2.8-18.3c-1.9-13.6-3.8-27.1-5.5-40.7c-0.8-6.4-1.6-12.9-2.3-19.4l-0.4-3.6
				c-0.7-6-1.3-12.1-1.9-18.1l-0.2-1.9c-0.1-1.4-0.3-2.8-0.4-4.2c-0.8-7.9-1.6-16.8-2.3-25.5l-0.2-2.8c-0.5-6.9-1.1-13.8-1.5-20.6
				l-0.4-6.8c-0.5-7.8-0.9-15.7-1.3-23.6c-0.2-4.1-0.4-8.4-0.5-12.7l-0.4-12c-0.1-3.5-0.2-7-0.2-10.5c-0.1-3.7-0.2-7.8-0.2-11.9
				l0-3.3c-0.1-6.4-0.1-12.8-0.1-19.2c0-4.3,0-8.9,0.1-13.7c0-4.6,0.1-9.4,0.3-14.2c0.1-4.9,0.3-10.1,0.5-15.2
				c0.1-4.1,0.3-8.5,0.5-12.9l0.9-17.3c0.3-5.4,0.7-10.6,1.1-15.7l0.6-7.6c0.1-2.3,0.4-5.1,0.7-7.9l0.9-9.6c0.1-1.2,0.2-2.2,0.3-3.2
				l0.1-1.1c0.6-5.5,1.2-11,1.8-16.4c0.5-4.8,1.2-10,1.8-15.1c0.4-2.9,0.7-5.5,1.1-8c0.3-2.5,0.7-5.1,1.1-7.7
				c0.9-6.1,1.9-12.7,3-19.2l0.4-2.1c0.9-5.5,1.9-11,2.9-16.5l0.6-3.1c0.8-4.1,1.7-8.8,2.7-13.5c1.7-8.1,3.5-16.7,5.5-25.1
				c0.6-2.6,1.3-5.7,2.1-8.8l1.4-5.6c1.2-4.7,2.4-9.3,3.7-13.8c1.1-4.1,2.4-8.6,3.7-13.1l0.2-0.8c1.3-4.6,2.7-9.1,4.1-13.7l2.3-10.8
				l1.4-1.1c0.4-1.2,0.8-2.4,1.2-3.7c3.6-11,7.8-22.4,12.2-33.8c3.3-8.5,6.7-16.8,10.3-25.1l0.8-1.8c0.3-0.6,0.5-1.3,0.8-1.9l0-0.2
				l2-4.4c1.4-3.2,2.9-6.4,4.4-9.6c1.1-2.4,2.4-5.2,3.8-8l0.8-1.7c2.6-5.3,5.1-10.4,7.8-15.4c2.3-4.5,4.8-9.2,7.4-14
				c0.1-0.2,0.2-0.4,0.3-0.6l4-7.2c3.9-6.9,7.9-13.6,12-20.2c1.9-3.2,4-6.5,6.1-9.8l1.8-2.8c4.8-7.4,9.8-14.7,14.9-21.9
				c3.5-4.9,7-9.6,10.6-14.2c1.6-2.2,3.3-4.4,5-6.5l6.6-8.3c1.9-2.4,3.3-4.2,4.9-5.9c3.5-4.2,7.5-8.9,11.6-13.5l3.8-4.3
				c1.4-1.6,2.9-3.3,4.5-5c2.3-2.6,5.2-5.7,8.2-8.8l2.2-2.3c5.3-5.5,10.8-11,16.4-16.4c47.3-45.2,103-83.5,165.5-113.9
				c57.6-27.9,116.7-46.9,176-56.7l0.1-0.1l8.2-1.2c3.4-0.5,6.8-1,10.2-1.4c6.7-0.9,13.4-1.6,20.2-2.3c17-1.6,34-2.5,50.5-2.7
				c6.6-0.1,13.3,0,20,0.1l3.8,0.1c3,0.1,6.1,0.2,9.1,0.3c2.7,0.1,6.1,0.3,9.3,0.5c6.8,0.4,14.3,1,21.6,1.7
				c3.7,0.4,7.3,0.8,10.9,1.2c3.8,0.4,8.1,1,12.5,1.5l1.3,0.2c6.8,1,13.1,2,19.5,3c6.2,1.1,12.4,2.3,18.6,3.5
				c6.8,1.4,12.9,2.7,18.9,4.1l0.9,0.2c4.7,1.1,9.5,2.3,14.2,3.6c3.8,0.9,7.6,2,11.3,3l2.6,0.7c6.4,1.8,12.6,3.7,18.8,5.6
				c4.7,1.5,9.3,3,13.8,4.5c13.4,4.5,26.9,9.5,40.3,14.9l0.9,0.4c4.9,1.9,9.7,4,14.5,6l0,0l3.7,1.6c23.5,10.2,47.2,21.7,70.4,34.4
				c8.7,4.8,17.1,9.6,25.6,14.5c8.6,5.1,17,10.2,25.3,15.4c8.5,5.4,16.8,10.8,25,16.3c8.2,5.4,16.4,11.1,24.5,16.9
				c5.4,3.8,10.7,7.7,16.1,11.6c5.3,3.9,10.7,7.9,16,12c5.7,4.3,11.6,8.9,17.5,13.5l13.5,10.8c19.4,15.8,38.6,32.3,57.5,49.5
				c11.7,10.6,23.3,21.4,34.6,32.3c8.6,8.3,17.1,16.7,25.6,25.2c26.5,26.8,53.3,55.6,79.8,85.9c5.8,6.6,11.4,13.2,17,19.7l2.1,2.5
				c3,3.5,6,7,8.9,10.5c4.5,5.4,9.1,10.9,13.6,16.4l1,1.3c4.3,5.3,8.6,10.5,12.8,15.8c3.5,4.3,7.1,8.9,10.7,13.4l1.6,2.1
				c5.8,7.3,11.5,14.7,17.2,22l2.7,3.5c5.6,7.4,11.3,14.7,16.7,22l2.3,3c8.5,11.4,16.9,22.9,25.1,34.2l8,11.2
				c24.6,34.6,48.6,70.1,71.4,105.6l0.6,1c0.3,0.6,0.7,1.1,1.1,1.7c11,17.2,21.8,34.5,32.4,51.8l17.3,28.8c1,1.8,2.1,3.7,3.2,5.5
				l0.6,0.9l10.2,17.5c20.5,35.6,35.3,63.3,44.1,80.3c6.3,12,5.7,26.7-1.6,38.3C2495.5,1304.9,2490.6,1309.4,2485,1312.5z
				 M2440.5,1292c0,0.1,0.1,0.2,0.1,0.3C2440.6,1292.2,2440.6,1292.1,2440.5,1292z M2467.2,1249.8
				C2467.3,1249.8,2467.3,1249.8,2467.2,1249.8C2467.3,1249.8,2467.3,1249.8,2467.2,1249.8z M1576.8,1490.8
				c244.8-134.8,521-223.5,773.1-239.2c22.8-1.4,45.5-2.2,67.7-2.4c-5.8-10.4-12.3-22-19.5-34.6l-10-17.2c-1.5-2.6-2.9-4.8-4.1-7
				l-16.2-27c-10.5-17.2-21-34-31.4-50.3c-0.7-1-1.5-2.3-2.3-3.5c-22.1-34.4-45.4-68.9-69.3-102.4l-7.8-11
				c-8-11.1-16.2-22.3-24.6-33.5l-2.3-3.1c-5.1-6.7-10.5-13.9-16-21.1l-2.4-3.1c-5.5-7.1-11.1-14.3-16.7-21.4l-1.7-2.1
				c-3.4-4.4-6.9-8.8-10.4-13.1c-4.1-5.2-8.2-10.1-12.3-15.1l-1.1-1.4c-4.3-5.3-8.7-10.6-13.1-15.8c-2.9-3.5-5.7-6.8-8.6-10.1
				l-2.2-2.6c-5.4-6.4-10.9-12.7-16.4-19c-25.5-29.1-51.3-56.9-76.7-82.6c-8.1-8.1-16.3-16.2-24.6-24.3
				c-10.8-10.4-21.9-20.8-33-30.9c-18-16.4-36.4-32.1-54.5-46.9l-13-10.4c-5.3-4.1-10.8-8.5-16.4-12.7c-5.1-3.9-10.1-7.6-15.1-11.3
				c-5.2-3.8-10.3-7.5-15.3-11.1c-7.5-5.4-15.2-10.6-22.8-15.7c-7.8-5.3-15.7-10.3-23.5-15.3c-7.7-4.8-15.7-9.7-23.6-14.4
				c-7.8-4.6-15.8-9.1-23.8-13.5c-20.2-11-40.9-21.2-61.4-30.2l-3.5-1.5c-4.8-2.1-9.7-4.2-14.7-6.2l-1.7-0.7
				c-12.6-5.1-25.2-9.7-37.4-13.8c-4-1.3-8.3-2.7-12.6-4.1c-5.6-1.7-11.1-3.4-16.7-5l-2.6-0.7c-3.2-0.9-6.5-1.8-9.7-2.6l-1-0.3
				c-3.7-1-7.6-2-11.3-2.8l-0.9-0.2c-5.6-1.3-11.3-2.6-17-3.7c-5.9-1.2-11.5-2.3-17.1-3.2c-5.8-1-11.7-1.9-17.6-2.7l-0.8-0.1
				c-3.7-0.5-7.5-1-11.2-1.4c-3.7-0.4-6.8-0.8-10-1.1c-6.3-0.6-12.7-1.1-19.1-1.5c-3.1-0.2-5.8-0.4-8.4-0.5c-3-0.2-5.4-0.2-7.7-0.3
				l-4-0.1c-5.6-0.1-11.4-0.2-17.3-0.1c-14.6,0.1-29.6,0.9-44.6,2.4c-5.9,0.6-11.9,1.3-18,2.1c-1.7,0.2-3.3,0.4-5,0.7l-4,0.6
				c-55.3,8.3-110.7,25.8-164.8,52c-56.2,27.2-106.1,61.5-148.4,101.9c-5,4.8-9.9,9.6-14.6,14.6l-1.9,2c-2.5,2.6-5,5.2-7.4,7.9
				c-1.6,1.7-2.6,2.8-3.6,4l-3.8,4.3c-3.6,4-7.1,8.2-10.6,12.3c-1.4,1.6-2.3,2.7-3.2,3.8l-7.4,9.4c-1.1,1.3-2.1,2.7-3.1,4.1
				l-0.6,0.8c-3.2,4.1-6.2,8.3-9.3,12.5c-4.5,6.3-8.9,12.9-13.3,19.5c-0.7,1.1-1.2,1.9-1.7,2.6c-1.8,2.8-3.5,5.6-5.3,8.4
				c-3.7,6.1-7.3,12.1-10.7,18.1l-4.8,8.6c-1.8,3.3-3.8,7.1-5.7,10.9c-2.5,4.9-4.8,9.5-7.1,14.1l-0.8,1.7c-1.1,2.2-2.1,4.4-3.1,6.5
				c-0.9,2-1.8,3.9-2.6,5.7l-0.1,0.4l-2,4.2c-0.7,1.5-1.3,2.9-2,4.4l-0.9,2.1c-3.3,7.5-6.3,15-9.3,22.5c-4,10.3-7.7,20.7-11.1,30.8
				c-1.5,4.3-2.7,8.4-4,12.4l-2.7,8.9c-0.5,1.8-1.1,3.6-1.6,5.4l-0.3,1c-1.2,4-2.3,7.9-3.3,11.8c-1.2,4.2-2.2,8.2-3.2,12.1l-1.4,5.5
				c-0.7,2.8-1.3,5.2-1.9,7.7c-1.9,8.2-3.7,16-5.3,23.9c-0.9,4.4-1.7,8.4-2.5,12.4l-0.4,2.3c-1,5.4-1.9,10.7-2.8,16.1l-0.3,1.7
				c-0.9,5.6-1.9,11.7-2.7,17.7c-0.4,2.6-0.7,4.7-0.9,6.8l-0.2,1.1c-0.3,2.1-0.6,4.3-0.9,6.4c-0.6,5-1.2,9.7-1.8,14.4
				c-0.6,5.4-1.2,10.5-1.7,15.7l-0.2,1.6c-0.1,1.3-0.2,2.1-0.3,2.9l-0.7,8.4c-0.2,2.5-0.4,4.6-0.6,6.7l-0.6,8
				c-0.4,4.7-0.7,9.5-1,14.3l-0.9,16.4c-0.2,4.2-0.4,8.4-0.5,12.7c-0.2,5-0.3,9.8-0.5,14.6c-0.1,4.5-0.2,8.7-0.2,13
				c-0.1,4.5-0.1,8.8-0.1,13.1c-0.1,6,0,11.5,0.1,17l0.1,3.4c0,4.2,0.1,8.4,0.2,12.6c0,3.4,0.1,6.2,0.2,9.1l0.4,12.3
				c0.1,3.9,0.3,7.8,0.5,11.7c0.4,7.8,0.8,15.4,1.3,22.9l0.4,6.8c0.4,6.3,0.9,13,1.4,19.6l0.2,2.6c0.7,8.2,1.4,16.7,2.3,25.1
				l0.5,5.7c0.5,5.5,1.2,11.2,1.8,16.9l0.4,3.5c0.7,6.1,1.4,12.4,2.2,18.6c1.6,13.3,3.4,26.3,5.3,39.3c0.9,5.8,1.7,11.8,2.7,17.7
				c0.7,4.7,1.4,9.1,2.1,13.4l0.6,3.8c0.4,2.6,0.8,5.1,1.3,7.6c0.5,3.2,1,5.7,1.4,8.3c1,5.8,1.9,10.8,2.8,15.8
				c0.7,4,1.4,7.8,2.1,11.6l2,10.7c2.3,12.1,4.7,23.7,7,35.2l0.1,0.3l0.7,3.3c1.4,7.1,3,14.2,4.5,21.1c1.7,7.8,3.4,15.3,5.2,22.8
				l2.8,12c2.1,9.1,4.3,18,6.5,26.8c2.6,10.3,5.2,20.5,7.9,30.7c2.3,8.7,4.6,17.4,7,25.9c0.8,2.8,1.6,5.8,2.4,8.7
				c0.9,3.4,1.8,6.4,2.6,9.3c1.1,3.8,2,7.3,3,10.7l4.6,15.8c1.2,4.3,2.4,8.2,3.5,12l0.9,2.8c3.1,10.4,6.2,20.4,9.3,30.2l3.1,9.9
				c2.3,7.3,4.7,14.8,7.1,22l2.9,8.8c4.1,12.5,8.3,24.7,12.3,36.4c1.4,4.1,2.8,8,4.1,11.8c3.1,9,6.1,17.2,9,25.1l0.6,1.6
				c0.8,2.3,1.7,4.6,2.5,6.9c0.8,2.4,1.4,3.9,2,5.4l10.9,28.7c1.2,3.1,2.4,6.1,3.5,9c13.8-17.1,28.1-34,43-50.5
				C1233.9,1713.9,1396.8,1589.9,1576.8,1490.8z M1035.9,1942.9c-0.1,0.1-0.2,0.2-0.3,0.4C1035.8,1943.2,1035.8,1943,1035.9,1942.9z
				 M948.5,1507.2c0,0.1,0,0.2,0.1,0.3C948.6,1507.4,948.5,1507.3,948.5,1507.2z"/>
		</g>
		<g>
			<path class="st1" d="M2375.6,1125.9c0.5,0.8-21.8-31-21.3-30.2c4.6,6.5,9.2,12.9,13.6,19.2c1.7,2.5,3.4,5,5.1,7.4
				c7.8,11.2,15.2,22,22.2,32.4c2.5,3.7,4.9,7.2,7.2,10.7c5.2,7.7,10.1,15.2,14.8,22.4c1.7,2.7,3.5,5.3,5.1,7.9
				c1.7,2.6,3.3,5.1,4.9,7.6c2.2,3.5,4.4,6.8,6.5,10.1c2.9,4.6,5.7,9.1,8.3,13.3c3.8,6,7.3,11.6,10.4,16.8c0.9,1.5,1.8,3,2.7,4.4
				c0.5,0.8,0.9,1.5,1.4,2.3c1.3,2.1,2.4,4.1,3.6,6c0.8,1.3,1.6,2.5,2.3,3.8c1.1,1.9,2.2,3.7,3.2,5.3c0.3,0.5,0.6,1,0.9,1.5
				c1.1,1.8,2.1,3.6,3.1,5.2c0.4,0.7,0.8,1.4,1.2,2.1c0.7,1.3,1.4,2.4,2,3.4c0.3,0.4,0.5,0.8,0.7,1.1c0,0.1,0,0.1,0,0.1
				c0.2,0.3,0.3,0.5,0.5,0.8c1.7,3,6,3.2,8,0.4c84.3-113.2,182.1-197.2,289.1-252.5c222-114.7,483.6-105.9,745.4,21.8
				c0.8,0.4,1.7,0.6,2.5,0.5l0.1,0c0.8-0.2,1.4-0.4,1.6-0.4c0.1,0,0.1,0,0.1,0c2.5-1.2,3.7-4.5,1.8-7.2
				c-26.1-35.3-24.9-55.2-138.7-160.9c-223.1-121.6-465.4-194.5-647.6-112.9C2503.4,872.4,2416.9,1064.8,2375.6,1125.9"/>
		</g>
		<g class="st9">
			<path class="st5" d="M968.7,1456.4c-25.8-53.5-60.6-207.7-1.5-326.8c73.7-148.7,51.3,85,62.2,192
				c15.1,147.9,33.7,195.2,30.1,230.8C1056.9,1576.7,1013.8,1549.9,968.7,1456.4"/>
		</g>
		<g class="st9">
			<path class="st5" d="M975.2,998.9c-3.7-22.8-2.3-59.5,31-85.7c36.9-29,27.6,35.1,22.2,64.9c-7.4,41.2-15.3,54.7-28,57.9
				C992.1,1038.1,978.7,1020.1,975.2,998.9"/>
		</g>
		<g class="st9">
			<path class="st5" d="M3525.9,1066.6c1.9,2.8,0.5,6-1.9,7.1c-0.1,0.1-0.2,0.1-0.2,0.1c-0.4,0.2-0.9,0.4-1.5,0.4c0,0-0.1,0-0.1,0
				c-0.8,0.1-1.6-0.1-2.4-0.6c-2.9-1.5-5.8-3-8.8-4.5c-170.5-203.7-554.4-547.6-1213.4-683.2c-189.3-38.9-467.7-31.8-636,69.8
				c-4.6-1.4-9.1-2.8-13.8-4.1c-4.5-1.3-8.9-2.5-13.5-3.6c-4.4-1.2-9-2.3-13.4-3.4l-0.1,0c-6-1.4-12-2.7-18-3.9
				c-6.1-1.2-12.1-2.4-18.2-3.4c-6.1-1.1-12.2-2-18.3-2.8c-4.5-0.6-9-1.2-13.4-1.7c-3.3-0.4-6.7-0.8-10.1-1.1
				c-6.8-0.7-13.8-1.2-20.6-1.6c-3-0.2-6-0.4-8.9-0.5c-3.9-0.2-7.9-0.3-11.9-0.4c-6.3-0.2-12.5-0.2-18.8-0.1
				c-15.7,0.1-31.5,1-47.5,2.5c-6.3,0.6-12.7,1.3-19.2,2.2c-3.2,0.4-6.4,0.9-9.6,1.4c112.3-66.9,348.8-164,751.3-137.9
				C2989.5,351.2,3450.6,959.1,3525.9,1066.6"/>
		</g>
		<g>
			<path class="st2" d="M3534.2,1107.2l-1.1,0.1l-3.8,2.1l-6.7-1.3c-0.3,0-0.7,0-1,0l-4-0.2c-4.9-0.6-9.6-2-14-4.4
				c-381-197.9-744.9-126.8-997.9,195.3c-8.2,10.4-20.9,15.9-34.1,14.6c-13.1-1.2-24.5-9-30.6-20.7c-6.4-12.6-24.3-46.7-52.9-95.3
				c-5.3-9.1-10.9-18.5-16.9-28.3l-3.5-5.8c-10.7-17.7-20.9-34-31.3-50.2c-0.6-0.9-1.5-2.3-2.4-3.7c-21.9-34.2-45.2-68.6-69.2-102.3
				c-10-14.2-20.6-28.7-32.4-44.4l-2.4-3.2c-11.1-14.8-23-30.3-35.2-45.6c-3.7-4.8-7.3-9.2-10.9-13.7l-1.3-1.6
				c-4.2-5.3-8.5-10.5-12.8-15.8l-0.6-0.7c-4.3-5.2-8.6-10.5-13-15.7c-2.9-3.5-5.8-6.9-8.7-10.4l-2-2.3c-5.4-6.4-10.9-12.7-16.4-19
				c-25.5-29.1-51.3-56.9-76.7-82.6c-8.1-8.2-16.4-16.3-24.7-24.3c-10.8-10.4-21.9-20.8-33-30.9c-19.1-17.3-36.9-32.7-54.4-46.9
				c-4.3-3.5-8.5-6.9-12.7-10.2c-5.7-4.4-11.2-8.8-16.8-13c-5.1-3.9-10.1-7.7-15.1-11.3c-5-3.7-10-7.3-15-10.8
				c-15.7-11.1-31.2-21.6-46.4-31.1c-15.8-9.9-31.7-19.3-47.5-27.9c-20.1-11-40.5-21.1-61-30l-0.1,0l-4.1-1.8
				c-4.3-1.9-8.7-3.7-13.1-5.5l-0.1,0l-3.2-1.3c-15.8-6.4-32-12.3-48.3-17.4l-1.5-0.5c-5.6-1.7-11.1-3.4-16.8-5
				c-4.2-1.2-8.2-2.3-12.3-3.3c-4.8-1.3-9-2.3-13.1-3.3c-5.8-1.4-11.5-2.6-17.2-3.8l-0.8-0.2c-5.4-1.1-10.9-2.1-16.3-3
				c-5.9-1-11.6-1.9-17.4-2.7c-4-0.5-8.1-1.1-12.2-1.5c-3.8-0.5-6.9-0.8-10.1-1.1c-6.2-0.6-12.6-1.1-19-1.5
				c-3.1-0.2-5.8-0.4-8.4-0.5c-3-0.2-5.3-0.2-7.7-0.3l-4.1-0.1c-5.6-0.1-11.4-0.2-17.3-0.1c-14.6,0.1-29.6,0.9-44.6,2.4
				c-5.9,0.6-12,1.3-18.1,2.1c-3,0.4-6,0.8-9,1.3l-168.9,25l146.7-87.4c108.8-64.9,353.7-169.6,770.7-142.5
				c842.6,54.5,1309,662.2,1393.9,783.5l0.2,0.2c6.4,9.3,8.4,20.9,5.5,31.8c-2.8,10.5-9.8,19.3-19.4,24.3l-2.7,1.5L3534.2,1107.2z
				 M3522.2,1074.3L3522.2,1074.3L3522.2,1074.3z M3534.5,1043.3c0.2,0.1,0.5,0.3,0.8,0.4C3535,1043.6,3534.7,1043.4,3534.5,1043.3z
				 M2723.6,1021.7c208.9-115,453.9-126.1,704.3-27.1C3258.5,790.7,2833.3,375,2155.2,331.2c-271.8-17.6-465.5,22.3-593.7,68.8
				c2.9,0.4,6,0.8,9.1,1.2c6.7,0.9,13.2,1.9,19.6,3c5.9,1,11.8,2.2,17.8,3.3l1.1,0.2c6.6,1.3,12.9,2.7,19.2,4.2
				c4.8,1.1,9.7,2.4,14.5,3.6c4.3,1,9.1,2.4,14,3.8c5.5,1.5,11.1,3.2,16.7,4.9l0,0l1.9,0.6c18,5.6,36,12,53.5,19.1l1.6,0.6
				c5.5,2.2,11,4.5,16.4,6.8l1.7,0.7c23.7,10.2,47.4,21.8,70.5,34.5c16.9,9.2,34.1,19.3,51,30c16.3,10.2,32.9,21.3,49.4,33.1
				c5.2,3.6,10.6,7.6,16.1,11.6c5.3,3.9,10.7,7.9,16,12c5.7,4.3,11.6,8.9,17.5,13.5c4.5,3.5,9.2,7.3,13.8,11
				c18.4,14.9,37.2,31.1,57.2,49.2c11.6,10.5,23.2,21.4,34.6,32.3c8.7,8.4,17.3,16.8,25.7,25.3c26.4,26.6,53.2,55.4,79.7,85.7
				c5.8,6.6,11.4,13.2,17,19.7l1.9,2.3c3.1,3.6,6.1,7.2,9.1,10.8c4.5,5.4,9.1,10.9,13.6,16.4c4.9,6,9.4,11.5,13.8,17l1.2,1.5
				c3.9,4.8,7.6,9.5,11.4,14.3c12.4,15.6,24.7,31.6,36.4,47.2l2.2,3c12.1,16.1,23,31.1,33.3,45.7c24.7,34.6,48.7,70.1,71.3,105.4
				l0.6,0.9c0.3,0.6,0.7,1.1,1.1,1.7c11.1,17.2,21.6,34,32.4,51.9l3.4,5.6c6.4,10.6,12.3,20.3,17.7,29.7
				c13.7,23.3,25.1,43.5,34,59.7C2553.4,1137.6,2635.3,1070.4,2723.6,1021.7z"/>
		</g>
		<g class="st9">
			<path class="st5" d="M1074.6,598.2c-5.3,5.1-10.6,10.3-15.6,15.6l-0.7,0.7c-0.4,0.4-0.7,0.8-1,1.1c-2.8,2.9-5.5,5.8-8.2,8.8
				c-1.3,1.4-2.6,2.8-3.9,4.3c-1.3,1.4-2.5,2.8-3.8,4.3c-3.8,4.3-7.6,8.7-11.3,13.2c-1.4,1.6-2.6,3.1-3.9,4.7
				c-1.7,2.2-3.4,4.3-5.1,6.4c-0.6,0.8-1.2,1.5-1.8,2.3c-1.4,1.8-2.8,3.6-4.2,5.5c-3.4,4.4-6.7,8.9-10,13.4
				c-4.8,6.8-9.6,13.8-14.1,20.8c-0.5,0.8-1.1,1.7-1.6,2.5c-2,3.1-4,6.3-5.9,9.4c-3.9,6.3-7.6,12.6-11.3,19.1c-1.2,2-2.3,4-3.4,6
				c-0.1,0.2-0.2,0.3-0.3,0.5c-0.1,0.2-0.3,0.6-0.4,0.8c-2.4,4.3-32.9,70.6-35.1,75c-126.8,23-244.3,150.9-387.2,368.1
				C162.2,1763.7,189,2351.9,241.6,2663.5c-2.2,0.3-4.5-0.9-5.3-3.4C198.7,2534.3,7.5,1795.8,481,1109.5
				C722.9,758.8,957.8,638.7,1074.6,598.2"/>
		</g>
		<g>
			<path class="st2" d="M260.3,2692.1l-1.9,1c-10.2,5.2-22,5.6-32.6,1.2c-10.5-4.4-18.4-13.2-21.8-24.1
				c-42.6-142.2-230.3-885,249.2-1579.9c246.5-357.4,488.2-481.7,610.3-524l147.1-50.9l-112.7,107.3c-5,4.7-9.8,9.6-14.5,14.5
				l-1.8,1.9c-2.5,2.6-5.1,5.3-7.5,8c-1.5,1.6-2.5,2.8-3.6,3.9l-3.8,4.3c-3.6,4-7.1,8.2-10.5,12.3c-1.4,1.6-2.2,2.7-3.1,3.7l-7.1,9
				c-1.4,1.8-2.4,3.1-3.4,4.5l-0.7,0.9c-3.2,4.1-6.3,8.3-9.3,12.5c-4.5,6.3-8.9,12.8-13.3,19.5c-0.8,1.2-1.3,2-1.7,2.7
				c-1.8,2.8-3.5,5.6-5.2,8.4c-3.8,6.1-7.3,12.1-10.7,18.2c-1.2,2-2,3.5-2.8,5l-2,3.6c-1.8,3.3-3.8,7.1-5.7,10.8
				c-2.5,4.8-4.8,9.3-6.9,13.8c-1.5,3.1-2.9,5.9-4.2,8.9l-4.5,9.9c-0.7,1.5-1.4,3-2,4.5l-0.8,2c-3.3,7.5-6.4,15-9.3,22.6
				c-4,10.3-7.7,20.7-11.1,30.9c-1,3.2-2.1,6.5-3.2,9.7l-0.2,0.6c-0.2,0.7-0.4,1.3-0.6,2l-3.3,10.8c-0.4,1.4-0.8,2.8-1.2,4.2
				l-0.3,0.8c-1.1,3.7-2.1,7.4-3.1,11.2c-1.2,4.3-2.2,8.3-3.2,12.2l-1.4,5.5c-0.7,2.6-1.3,5.2-1.9,7.7c-1.9,8.2-3.7,16-5.3,23.8
				c-0.9,4.2-1.7,8.2-2.5,12.4l-0.4,2c-1,5.2-2,10.8-2.9,16.4l-0.3,1.5c-0.9,5.6-1.9,11.8-2.8,18c-0.4,2.5-0.7,4.6-0.9,6.7l-0.1,1.2
				c-0.3,2-0.6,3.9-0.8,5.8l-0.1,1c-0.7,4.9-1.2,9.5-1.7,14.1c-0.6,5.3-1.2,10.3-1.7,15.4l-0.2,1.8c-0.1,1.6-0.2,2.5-0.3,3.5
				c-0.3,2.3-0.5,4.8-0.6,7.3l-0.1,1c-0.2,2.1-0.4,4.2-0.5,6.3l-0.1,1.6c-0.2,1.8-0.3,3.6-0.4,5.4l-0.1,1.1c-0.4,4.7-0.7,9.3-0.9,14
				c-0.3,5-0.6,9.7-0.8,14.4c-0.3,5.1-0.5,9.7-0.6,14.4c-0.2,5.3-0.3,10-0.4,14.7c-0.1,4.8-0.2,9.2-0.3,13.6
				c-0.1,4.3-0.1,8.5-0.1,12.7c-0.1,5.9,0,11.4,0,16.8l0.2,1.4l-0.2,2.5c0,4,0.1,8.1,0.2,12.1l0,0.9c0,2.9,0.1,5.7,0.2,8.5l0.4,11
				c0.2,4.9,0.3,8.9,0.5,13c0.4,7.8,0.8,15.4,1.2,22.9l0.4,6.8c0.5,7.1,1,14.5,1.6,21.9c0.7,8.5,1.5,16.9,2.3,25.3l0.5,5.7
				c0.5,5.5,1.2,11.2,1.8,16.9l0.4,3.5c0.7,6.1,1.4,12.4,2.2,18.6c1.6,13.3,3.4,26.3,5.3,39.3c0.9,5.8,1.7,11.8,2.7,17.8
				c0.7,4.7,1.4,9,2.1,13.4c0.6,4.1,1.2,7.8,1.9,11.4c0.5,3.2,1,5.8,1.4,8.3l0.2,0.9c0.8,5,1.7,9.9,2.6,14.8l4.2,22.5
				c2.3,12,4.6,23.6,7,35l0.1,0.3l0.7,3.3c1.5,7.1,3,14.2,4.5,21.2c1.7,7.7,3.4,15.2,5.2,22.7c0.9,4.2,1.8,7.9,2.7,11.5
				c2.2,9.6,4.4,18.5,6.6,27.3c2.6,10.3,5.2,20.6,7.9,30.7c2.3,8.7,4.6,17.4,6.9,25.9c0.8,2.8,1.6,5.8,2.5,8.7l0.2,0.9
				c0.6,2.3,1.2,4.5,1.9,6.7l8.1,28.1c1.2,4.3,2.4,8.2,3.6,12.1l0.8,2.7c3.1,10.3,6.1,20.4,9.3,30.2c1,3.5,2,6.4,2.9,9.2
				c2.5,8,4.9,15.4,7.3,22.6l1.1,3.4c0.6,1.8,1.2,3.6,1.8,5.4c4.1,12.5,8.3,24.7,12.3,36.3c1.4,4.1,2.8,8,4.1,11.8
				c3.1,9,6.1,17.2,9,25.1c1.1,3,2.1,5.9,3.2,8.6c0.8,2.3,1.4,3.8,2,5.4l10.9,28.7c2.6,6.7,4.9,12.7,7.1,18.2l0.5,1.3
				c0.4,1,0.7,1.9,1.1,2.8l3.8,9.4c0.6,1.5,0.9,2.4,1.3,3.3l8.9,21.4c5.1,11.9,3.8,25.5-3.4,36.4c-7.2,10.9-19.4,17.3-32.4,17.2
				c-133.2-0.4-254.5,25.4-360.4,76.7c-215.3,104.3-357.5,306.7-411,585.3c-1.3,7.3-4.7,14-9.8,19.4l-2.1,2.3L260.3,2692.1z
				 M957.1,689.6c-121,69.3-282.4,198.7-448.2,439c-386,559.3-323.2,1150.9-268.2,1410.1C313,2299,459.3,2117,660.5,2019.5
				c103.6-50.2,220.3-77.9,347.3-82.7l0-0.1c-2.2-5.6-4.7-11.9-7.3-18.7l-11-29c-0.8-2-1.5-4.1-2.3-6.2c-0.9-2.3-2-5.5-3.1-8.6
				c-3-8.1-6.1-16.7-9.2-25.7c-1.4-3.7-2.8-8-4.3-12.3c-4.1-11.8-8.4-24.4-12.7-37.5l-2.9-8.7c-2.4-7.4-4.8-14.9-7.3-22.6
				c-1-3.1-2.2-6.7-3.3-10.3c-3-9.6-6.2-20-9.4-30.6l-0.8-2.6c-1.3-4.3-2.6-8.6-3.8-13l-5-17.2c-0.9-3.2-1.8-6.4-2.7-9.6l-0.4-1.2
				c-0.8-2.6-1.5-5.3-2.2-8.1c-0.8-3-1.7-6.1-2.6-9.1c-2.4-8.8-4.7-17.5-7.1-26.4c-2.8-10.5-5.5-21-8.1-31.6
				c-2.3-9.3-4.6-18.5-6.7-27.9c-0.9-3.8-2-8.1-2.9-12.5c-1.7-7.3-3.5-15-5.2-22.8c-1.4-6.2-2.8-12.6-4.1-19l-0.1-0.2l-0.9-4.2
				c-2.6-12.3-5.2-25.1-7.7-38.1l-4.3-23.2c-1-5.2-2-10.7-2.9-16.2c-0.5-2.8-1.1-5.9-1.5-9c-0.6-3.4-1.3-7.5-1.9-11.5
				c-0.7-4.3-1.5-9.1-2.2-13.9c-0.9-6-1.9-12.2-2.8-18.4c-1.9-13.6-3.8-27.1-5.5-40.7c-0.8-6.4-1.6-12.9-2.3-19.5l-0.4-3.5
				c-0.7-6-1.3-12.1-1.9-18.1l-0.2-1.9c-0.1-1.4-0.3-2.8-0.4-4.2c-0.8-7.9-1.6-16.8-2.3-25.5c-0.7-7.7-1.2-15.6-1.7-23.4l-0.4-6.7
				c-0.5-7.9-0.9-15.8-1.3-23.7c-0.2-4.2-0.4-8.7-0.5-13.2l-0.4-11.6c-0.1-3.4-0.2-6.7-0.2-10.1c-0.1-4.3-0.2-8.7-0.3-13.1l0-2.7
				c-0.1-6.3-0.1-12.7-0.1-19c0-4.1,0-8.9,0.1-13.7c0.1-4.6,0.1-9.2,0.3-13.9c0.1-5.4,0.3-10.5,0.5-15.5c0.1-4.7,0.3-10,0.6-15.4
				c0.2-4.8,0.5-10.2,0.8-15.5c0.3-4.9,0.6-10.1,1.1-15.4c0.1-2.2,0.3-4.8,0.6-7.5c0.2-2.4,0.4-4.8,0.6-7.2c0.2-3.3,0.5-6.6,0.9-9.9
				c0.1-1.4,0.2-2.3,0.3-3.2l0.2-1.6c0.6-5.4,1.1-10.8,1.8-16.2c0.6-5,1.2-10.1,1.9-15.4l0.1-0.7c0.3-2.1,0.6-4.3,0.9-6.4
				c0.3-2.7,0.7-5.5,1.2-8.3c0.9-6.3,2-12.9,3-19.5l0.3-1.5c1-6,2.1-12.1,3.2-18l0.4-1.9c0.8-4.1,1.7-8.7,2.6-13.2
				c1.7-8.4,3.6-17,5.6-25.3c0.6-2.7,1.4-5.9,2.2-9l1.3-5.3c1.2-4.7,2.4-9.3,3.6-13.8c1.1-4.2,2.3-8.6,3.7-13
				c1.2-4.3,2.5-8.6,3.8-12.9l1.3-11.6l3.1-2.3c0.3-1,0.6-2,1-3c3.7-11.3,7.9-22.8,12.3-34.2c3.6-9.3,7-17.5,10.4-25.2l0.7-1.6
				c0.2-0.5,0.5-1.1,0.7-1.6l0-0.2l6.6-14.4c1.5-3.3,3.1-6.5,4.6-9.7c2.4-5.1,5.1-10.3,7.8-15.4c2.3-4.5,4.8-9.2,7.4-14
				c0.1-0.1,0.2-0.3,0.2-0.4l1.7-3.2c0.9-1.6,1.8-3.3,2.8-4.9c3.5-6.2,7.5-12.9,11.6-19.5C955.4,692.3,956.2,691,957.1,689.6z
				 M1050.4,1936.1c0.1,0,0.2,0,0.3,0C1050.7,1936.1,1050.6,1936.1,1050.4,1936.1z M948.5,1507c0,0.1,0.1,0.2,0.1,0.4
				C948.5,1507.3,948.5,1507.1,948.5,1507z"/>
		</g>
	</g>
</g>
</svg>
