<?xml version="1.0" encoding="utf-8"?>
<!-- Generator: Adobe Illustrator 25.0.0, SVG Export Plug-In . SVG Version: 6.00 Build 0)  -->
<svg version="1.1" id="Layer_1" xmlns="http://www.w3.org/2000/svg" xmlns:xlink="http://www.w3.org/1999/xlink" x="0px" y="0px"
	 viewBox="0 0 288 288" style="enable-background:new 0 0 288 288;" xml:space="preserve">
<style type="text/css">
	.st0{opacity:0.15;}
	.st1{opacity:0.4;}
	.st2{fill:#FFFFFF;stroke:#000075;stroke-width:6.3362;stroke-miterlimit:10;}
	.st3{fill:#0094FF;}
	.st4{opacity:0.4;fill:#0091E4;}
	.st5{fill:none;stroke:#000075;stroke-width:6.3362;stroke-miterlimit:10;}
	.st6{fill:#ECEFF0;}
</style>
<g class="st0">
	<path d="M258.3,148.4l0.7-2.7c2.4-8.9-2.9-18.1-11.9-20.5l-37.7-10c1.5-2.8,5.8-9.7,11.5-13.6c7.4-4.9,19.1-21.1,19.4-37.8
		c0.3-16.7-7.7-25.7-14.6-22.6c-6.9,3.1-12.8,26.3-28.2,34.6c-15.4,8.3-35.2,28-42,29.8l-28-7.4L103,190.8l23.4,6.2
		c0,0,3.9,7.9,23.5,13.1c0.4,0.1-1.1-0.4,59.5,15.7c14.5,3.9,24.4-13.3,17.7-21c9.2-2.6,15.5-13,9.2-20.9
		c16.8-5.1,17.1-20.1,11.2-25.4C252.1,157.6,257.1,153.3,258.3,148.4z"/>
	<path d="M31.5,175.9c-1.4,5.1,1.7,10.3,6.8,11.7l37.5,9.9c5.1,1.4,10.3-1.7,11.7-6.8l26.5-99.6c1.4-5.1-1.7-10.3-6.8-11.7
		l-37.5-9.9c-5.1-1.4-10.3,1.7-11.7,6.8L31.5,175.9z"/>
	<path class="st1" d="M44.7,126.2l-13.2,49.7c-1.4,5.1,1.7,10.3,6.8,11.7l37.5,9.9c5.1,1.4,10.3-1.7,11.7-6.8l13.2-49.7L44.7,126.2z
		"/>
	<path d="M31.5,175.9c-1.4,5.1,1.7,10.3,6.8,11.7l37.5,9.9c5.1,1.4,10.3-1.7,11.7-6.8l26.5-99.6c1.4-5.1-1.7-10.3-6.8-11.7
		l-37.5-9.9c-5.1-1.4-10.3,1.7-11.7,6.8L31.5,175.9z"/>
	<path d="M80.8,170.6c-1.1,4.3-5.5,6.8-9.8,5.7c-4.3-1.1-6.8-5.5-5.7-9.8c1.1-4.3,5.5-6.8,9.8-5.7C79.4,162,81.9,166.4,80.8,170.6z"
		/>
</g>
<g>
	<path class="st2" d="M255.5,131.4l0.7-2.7c2.4-8.9-2.9-18.1-11.9-20.5l-37.7-10c1.5-2.8,5.8-9.7,11.5-13.6
		c7.4-4.9,19.1-21.1,19.4-37.8c0.3-16.7-7.7-25.7-14.6-22.6c-6.9,3.1-12.8,26.3-28.2,34.6c-15.4,8.3-35.2,28-42,29.8l-28-7.4
		l-24.6,92.5l23.4,6.2c0,0,3.9,7.9,23.5,13.1c0.4,0.1-1.1-0.4,59.5,15.7c14.5,3.9,24.4-13.3,17.7-21c9.2-2.6,15.5-13,9.2-20.9
		c16.8-5.1,17.1-20.1,11.2-25.4C249.2,140.6,254.2,136.2,255.5,131.4z"/>
	<path class="st3" d="M28.7,158.9c-1.4,5.1,1.7,10.3,6.8,11.7l37.5,9.9c5.1,1.4,10.3-1.7,11.7-6.8L111,74.1
		c1.4-5.1-1.7-10.3-6.8-11.7l-37.5-9.9c-5.1-1.4-10.3,1.7-11.7,6.8L28.7,158.9z"/>
	<path class="st4" d="M41.9,109.2l-13.2,49.7c-1.4,5.1,1.7,10.3,6.8,11.7l37.5,9.9c5.1,1.4,10.3-1.7,11.7-6.8l13.2-49.7L41.9,109.2z
		"/>
	<path class="st5" d="M28.7,158.9c-1.4,5.1,1.7,10.3,6.8,11.7l37.5,9.9c5.1,1.4,10.3-1.7,11.7-6.8L111,74.1
		c1.4-5.1-1.7-10.3-6.8-11.7l-37.5-9.9c-5.1-1.4-10.3,1.7-11.7,6.8L28.7,158.9z"/>
	<path class="st6" d="M77.9,153.6c-1.1,4.3-5.5,6.8-9.8,5.7c-4.3-1.1-6.8-5.5-5.7-9.8c1.1-4.3,5.5-6.8,9.8-5.7
		C76.5,145,79.1,149.3,77.9,153.6z"/>
</g>
</svg>
