<?xml version="1.0" encoding="utf-8"?>
<!-- Generator: Adobe Illustrator 25.0.0, SVG Export Plug-In . SVG Version: 6.00 Build 0)  -->
<svg version="1.1" id="Layer_1" xmlns="http://www.w3.org/2000/svg" xmlns:xlink="http://www.w3.org/1999/xlink" x="0px" y="0px"
	 viewBox="0 0 4000 4000" style="enable-background:new 0 0 4000 4000;" xml:space="preserve">
<style type="text/css">
	.st0{opacity:0.2;}
	.st1{fill:#000072;}
	.st2{fill:#DBDBDB;}
	.st3{fill:#0047BA;}
	.st4{fill:#3993FF;}
	.st5{opacity:0.55;}
	.st6{fill:#FFFFFF;}
	.st7{opacity:0.3;}
	.st8{fill:#282E6B;}
	.st9{fill:#9CADB7;}
	.st10{fill:#F7F7F7;}
</style>
<g>
	<g>
		<g class="st0">
			<path class="st1" d="M3755.9,2527c-3.4-35.8-20.4-68.2-48.1-91.1l-566.7-469.8c-57.2-47.4-142.2-39.4-189.6,17.7L2783,2187
				l90.6-934.2c8.4-86.3-55-163.3-141.3-171.6l-257.9-25l-33.2-49.5c-0.8-1.2-1.7-2.3-2.7-3.3c-0.3-0.3-0.5-0.5-0.8-0.8
				c-0.8-0.7-1.6-1.4-2.4-2c-0.3-0.2-0.6-0.5-1-0.7c-0.9-0.6-1.9-1.2-3-1.7c-0.2-0.1-0.5-0.3-0.7-0.4c-1.3-0.6-2.6-1-4-1.4
				c-0.1,0-0.1,0-0.2-0.1l-720.9-174.9c35.4-48,61.4-94.2,71.3-135c51.4-211.8-79.1-425.9-290.9-477.3s-425.9,79.1-477.3,290.9
				c-9.9,40.9-8,93.8,1.5,152.7l-141-34.2l8.2-33.8c2-8.3-0.4-17-6.3-23.1c-23.8-24.4-54.9-41.8-89.8-50.2
				c-90.3-21.9-179,23.4-197.9,101l-399.9,1648c-17.8,73.4,31.6,149.2,114.6,176.1c4.6,1.6,9.5,3,15,4.3l100.6,24.4l-14.3,147
				c-4,41.8,8.4,82.6,35.1,115.1c21.9,26.6,51.1,44.8,83.9,52.8c7.3,1.8,14.7,3,22.2,3.7l1617.4,156.8l-296,357.1
				c-23,27.7-33.8,62.7-30.4,98.5c3.3,35.8,20.4,68.2,48.1,91.1l566.7,469.8c16,13.3,34.4,22.5,54.1,27.2
				c14.3,3.5,29.3,4.6,44.4,3.2c35.8-3.3,68.2-20.4,91.1-48.1l1089.2-1314C3748.5,2597.8,3759.3,2562.8,3755.9,2527z M1363.8,713
				c-70.6-17.1-114.1-88.5-97-159.1c17.1-70.6,88.5-114.1,159.1-97c70.6,17.1,114.1,88.5,97,159.1
				C1505.8,686.6,1434.4,730.1,1363.8,713z"/>
		</g>
		<g>
			<path class="st2" d="M2559.3,2813L551.8,2618.3c-72.8-7.1-126.1-71.8-119.1-144.6L586.3,889.3c7.1-72.8,71.8-126.1,144.6-119.1
				l2007.6,194.6c72.8,7.1,126.1,71.8,119.1,144.6L2704,2693.9C2696.9,2766.7,2632.2,2820,2559.3,2813z"/>
		</g>
		<g>
			<path class="st1" d="M527.4,2639.2c-74.8-18.1-126.9-89.1-119.3-167.9L561.7,886.9c8.4-86.3,85.3-149.6,171.6-141.3l2007.6,194.6
				c86.3,8.4,149.6,85.3,141.3,171.6l-153.6,1584.4c-4.1,41.8-24.1,79.5-56.5,106.2c-32.4,26.7-73.3,39.1-115.1,35.1L549.4,2642.9
				C541.9,2642.2,534.5,2640.9,527.4,2639.2z M2751.2,992c-4.9-1.2-9.9-2-15.1-2.5L728.6,794.8c-59.1-5.7-111.9,37.7-117.7,96.9
				L457.3,2476.1c-5.7,59.1,37.7,111.9,96.9,117.7l2007.6,194.6c28.7,2.8,56.7-5.8,78.9-24.1c22.2-18.3,36-44.1,38.8-72.8
				L2833,1107.1C2838.2,1053.1,2802.5,1004.4,2751.2,992z"/>
		</g>
		<g>
			<path class="st2" d="M2748.7,1355.3l-327.2,1348.2c-10.2,42-52.5,67.8-94.5,57.6L327.6,2275.9c-4.3-1-8.6-2.3-12.7-3.7
				c-69.8-22.6-113.4-86.1-98.6-146.9c14.8-60.8,82.6-97.3,155-85.4c4.3,0.6,8.7,1.5,13,2.6c31.4,7.6,58.2,23.3,78,43.5L848,495.8
				l1581.2,383.7L2748.7,1355.3z"/>
			<path class="st1" d="M2326.1,2765.1L326.6,2279.9c-4.8-1.2-9.1-2.4-13.1-3.8c-34.7-11.2-64.3-32.8-83.1-60.7
				c-19.1-28.3-25.6-60.6-18.2-91c7.4-30.4,27.9-56.2,57.9-72.6c29.6-16.2,65.7-21.8,101.8-15.9c4.1,0.6,8.5,1.5,13.3,2.6
				c28.7,7,54.3,20.6,74.7,39.5L845,490.9l1586.7,385l0.9,1.3l320.5,477.2l-327.6,1350C2414.8,2748.6,2370.2,2775.8,2326.1,2765.1z
				 M383.2,2046.5c-4.5-1.1-8.7-1.9-12.6-2.5c-71.6-11.8-136.2,23.6-150.4,82.3c-14.2,58.6,27,119.7,95.9,142
				c3.9,1.3,7.9,2.5,12.4,3.6L2328,2757.1c39.7,9.6,79.9-14.8,89.5-54.5l326.7-1346.5l-317.6-472.9L851.1,500.8L464.4,2094.2
				l-5.2-5.3C439.2,2068.3,412.9,2053.7,383.2,2046.5z"/>
		</g>
		<g>
			<polygon class="st3" points="832.5,1561.7 1042.5,1612.7 1241.7,1822 1332.1,1973.2 796.5,2059.2 			"/>
		</g>
		<g>
			<polygon class="st3" points="2169.1,1439.2 2402.6,1271.3 2748.7,1355.3 2600.1,1942.6 			"/>
		</g>
		<g>
			<g>
				<path class="st4" d="M1775.4,2627.2l-177.1-43l-41.3-84.2c-46.2-94.1-58.1-202.1-33.3-304c25.1-103.5-4-211-78-287.6
					l-265.5-275.2c-107.5-111.3-149.8-267.5-113.3-417.8L1219.6,586l136,33l-152.7,629.5c-25.1,103.5,4,211,78,287.6l265.5,275.2
					c107.5,111.3,149.8,267.5,113.3,417.8c-17,70.1-8.9,144.4,22.9,209.2L1775.4,2627.2z"/>
			</g>
		</g>
		<g>
			<path class="st2" d="M862.1,438L462.2,2086c-19.8-20.2-46.6-35.9-78-43.5c-4.3-1-8.7-1.9-13-2.6c-72.4-11.9-140.3,24.6-155,85.4
				l399.9-1648c15.6-64.5,90.9-101.6,168-82.8C815.5,402.1,842.3,417.8,862.1,438z"/>
		</g>
		<g class="st5">
			<path class="st6" d="M862.1,438l-4.8,19.8c-9.7-4.5-20-8.1-30.9-10.7c-77.1-18.7-152.4,18.3-168,82.8L290.2,2047
				c-36.9,13.8-65.2,41.5-74.1,78.3l399.9-1648c15.6-64.5,90.9-101.6,168-82.8C815.5,402.1,842.3,417.8,862.1,438z"/>
		</g>
		<g>
			<path class="st1" d="M210.3,2149.3c-13.3-3.2-21.4-16.6-18.2-29.8l399.9-1648c9.3-38.4,35.6-70,74-89
				c36.9-18.2,80.9-22.5,123.8-12.1c34.9,8.5,66,25.9,89.8,50.2c5.9,6.1,8.3,14.8,6.3,23.1l-399.9,1648c-2.1,8.7-8.8,15.6-17.5,18
				c-8.7,2.4-17.9-0.1-24.2-6.6c-17.3-17.8-40.2-30.5-66.1-36.8c-3.9-0.9-7.4-1.6-10.7-2.1c-0.2,0-0.3,0-0.5-0.1
				c-59.7-9.8-115.5,19.6-127,66.9C237,2144.4,223.6,2152.5,210.3,2149.3z M778.3,418.5C714.5,403,652.5,432,640.1,483.2
				L264.4,2031.5c32.7-16.6,71.8-22.3,110.6-16c4.8,0.7,9.7,1.7,15.1,3c20.7,5,40,13.2,57.3,24L834.7,446.3
				C818.8,433.2,799.6,423.7,778.3,418.5z"/>
		</g>
		<g>
			<path class="st2" d="M2748.7,1355.3l-314.7-76.4c-53-12.9-85.6-66.3-72.7-119.3l68-280.1L2748.7,1355.3z"/>
		</g>
		<g class="st7">
			<path class="st8" d="M2721.8,1461.7l-260.4-63.2c-53-12.9-85.6-66.3-72.7-119.3l5-20.6c11.3,9.5,24.9,16.6,40.3,20.4l310.5,75.3
				L2721.8,1461.7z"/>
			<path class="st1" d="M2724.9,1466.7l-264.5-64.2c-55.1-13.4-89.1-69.1-75.7-124.3l6.6-27.1l5.1,4.3c11.3,9.5,24.2,16,38.6,19.5
				l314.4,76.3L2724.9,1466.7z M2396.2,1265.7l-3.5,14.4c-12.3,50.7,18.9,102,69.7,114.3l256.3,62.2l21-99.4l-306.6-74.4
				C2419.5,1279.6,2407.2,1273.9,2396.2,1265.7z"/>
		</g>
		<g>
			<path class="st1" d="M2742.9,1379.3l-314.7-76.4c-66.2-16.1-106.9-83-90.9-149.1l68-280.1c2.3-9.5,10-16.8,19.7-18.5
				c9.6-1.7,19.4,2.4,24.8,10.5l319.5,475.7c5.7,8.5,5.6,19.5-0.2,27.9C2763.1,1377.7,2752.8,1381.7,2742.9,1379.3z M2440,939.9
				l-54.7,225.5c-9.6,39.7,14.8,79.8,54.5,89.5l252.9,61.4L2440,939.9z"/>
		</g>
		<g>
			<g>
				<polygon class="st6" points="2143,2716.4 2055,2695.1 2162.6,2251.5 1456.3,1293.6 1555,671.2 1644.4,685.3 1551.7,1270.4 
					2260.6,2231.8 				"/>
			</g>
		</g>
		<g>
			<g>
				<polygon class="st6" points="774.8,2384.4 686.8,2363 767.5,2030.5 1460.5,1902.6 1816,1696.7 1861.4,1775.1 1492.3,1988.8 
					841.6,2108.9 				"/>
			</g>
		</g>
		<g>
			<polygon class="st3" points="2048.2,787.1 2026.8,1069.9 2225.2,1103.3 2267.8,840.4 			"/>
		</g>
		<g>
			<g>
				<polygon class="st6" points="759.4,2066.4 815,1305.4 660.7,1268 682,1180 910.9,1235.5 849.7,2073 				"/>
			</g>
		</g>
		<g>
			<polygon class="st9" points="1123.6,562.7 944.7,968.3 717,1035.9 848,495.8 			"/>
		</g>
		<g>
			<g>
				<polygon class="st6" points="862.1,1315.7 863.7,1225.2 1497.3,1236.6 1865.5,1117.7 1890.6,756.6 1980.9,762.9 1951.6,1185.1 
					1510.8,1327.4 				"/>
			</g>
		</g>
		<g>
			<g>
				<polygon class="st6" points="2588.9,1962.9 2431.7,1875.8 1873.2,1179.7 1943.8,1123.1 2491.2,1805.2 2632.8,1883.6 				"/>
			</g>
		</g>
		<g>
			<g>
				
					<rect x="2260.1" y="2362.2" transform="matrix(0.2358 -0.9718 0.9718 0.2358 -685.8098 4165.0552)" class="st6" width="90.6" height="312.9"/>
			</g>
		</g>
		<g>
			<path class="st1" d="M2321.2,2785.1L321.7,2299.9c-5.3-1.3-10.2-2.7-14.7-4.3c-39-12.7-72.3-37.1-93.7-68.7
				c-22.4-33.1-29.9-71.3-21.1-107.4c8.8-36.1,32.9-66.6,68-85.8c33.5-18.3,74.3-24.8,114.8-18.2c4.8,0.7,9.7,1.7,15,3
				c20.7,5,40,13.2,57.3,24L824,490c3.2-13.3,16.6-21.4,29.8-18.2L2435,855.5c6,1.5,11.2,5.1,14.7,10.2l319.5,475.7
				c3.9,5.8,5.1,12.9,3.5,19.6l-327.2,1348.2C2432.1,2764.5,2376.4,2798.5,2321.2,2785.1z M378.4,2066.5c-3.9-0.9-7.4-1.6-10.7-2.1
				c-0.2,0-0.3,0-0.5-0.1c-59.7-9.8-115.5,19.6-127,66.9c-11.5,47.3,24.7,98.9,82.3,117.6c0.1,0,0.3,0.1,0.4,0.1
				c3.2,1.1,6.6,2.1,10.5,3l1999.5,485.2c28.7,7,57.7-10.7,64.6-39.4L2722.1,1360l-308-458.7L866.2,525.7l-380,1566.1
				c-2.1,8.7-8.8,15.6-17.5,18c-8.7,2.4-17.9-0.1-24.2-6.6C427.2,2085.5,404.3,2072.8,378.4,2066.5z"/>
		</g>
		<g>
			<polygon class="st9" points="1872.3,2039.8 2074.4,2267.7 2019.1,2495.7 1907.7,2481.4 1782.4,2100.8 			"/>
		</g>
		<g>
			<polygon class="st9" points="1760.4,1316.7 1879.4,1271.4 2111.6,1571.4 2013.3,1647 			"/>
		</g>
		<g>
			<polygon class="st9" points="885.9,2165 842.2,2345 1362,2358.9 1399.3,2075.6 			"/>
		</g>
		<g>
			<path class="st4" d="M1488.7,92.3c-198.8-48.2-399.2,73.8-447.4,272.7c-35.2,144.9,90.8,460.7,161.6,621.4
				c22.5,50.8,86.9,66.4,130.2,31.6c136.6-110.4,393.2-333.4,428.4-478.3C1809.7,340.8,1687.7,140.6,1488.7,92.3z M1366.5,596
				c-83.9-20.4-135.5-105-115.1-188.9c20.4-84,105-135.5,188.9-115.1c84,20.4,135.5,104.9,115.1,188.9
				C1535.1,564.8,1450.5,616.4,1366.5,596z"/>
		</g>
		<g class="st5">
			<path class="st6" d="M1540.6,357.6c24.1,35.3,33.7,80.3,22.8,125.2c-20.4,83.9-104.9,135.5-188.9,115.1
				c-15.2-3.7-29.3-9.5-42.1-17c21.1,30.8,53.1,54.2,92.2,63.7c84,20.4,168.6-31.2,188.9-115.1
				C1630.2,460.7,1598.7,391.6,1540.6,357.6z M1546.8,141c52.2,12.7,99.2,35.8,139,66.7c-48.3-54.3-113.1-95-189.1-113.4
				C1297.9,46,1097.6,168,1049.3,366.9c-35.2,144.9,90.8,460.7,161.6,621.4c10,22.7,28.4,38.3,49.6,45.6
				c-70.9-161.1-196.2-475.7-161.1-620.3C1147.7,214.7,1348,92.7,1546.8,141z"/>
		</g>
		<g>
			<path class="st1" d="M1254.4,1058.4c-33.2-8.1-60.2-30.7-74-62c-35.4-80.2-85.2-200.7-121.6-319.3
				c-43.9-143.2-57.9-250.2-41.4-317.9c24.9-102.6,88.2-189.3,178.4-244.3c90.1-54.9,196.3-71.5,298.9-46.6
				c102.6,24.9,189.3,88.2,244.3,178.4c54.9,90.1,71.5,196.3,46.6,298.9c-16.4,67.7-77.8,156.4-182.5,263.6
				c-86.7,88.8-186.2,173-254.4,228.1C1321.9,1058.7,1287.6,1066.5,1254.4,1058.4z M1483,116.3c-185.3-45-372.6,69.2-417.6,254.5
				c-24.1,99.4,34.3,320.2,160.2,605.6c7.6,17.1,22.3,29.5,40.5,33.9c18.2,4.4,37,0.2,51.5-11.6c242.7-196,395.8-365.4,419.9-464.9
				C1782.4,348.6,1668.3,161.3,1483,116.3z"/>
		</g>
		<g>
			<path class="st1" d="M1360.7,620c-97.1-23.6-156.9-121.7-133.3-218.7c23.6-97.1,121.7-156.9,218.7-133.3
				c97.1,23.6,156.9,121.7,133.3,218.7S1457.8,643.6,1360.7,620z M1434.5,315.9c-70.6-17.1-142,26.4-159.1,97
				c-17.1,70.6,26.4,142,97,159.1c70.6,17.1,142-26.4,159.1-97C1548.6,404.4,1505.1,333.1,1434.5,315.9z"/>
		</g>
		<g class="st7">
			<path class="st1" d="M948.9,520.3L512.1,2320.7l-184.5-44.8c-4.3-1-8.6-2.3-12.7-3.7c-69.8-22.6-113.4-86.1-98.6-146.9
				c14.8-60.8,82.6-97.3,155-85.4c4.3,0.6,8.7,1.5,13,2.6c31.4,7.6,58.2,23.3,78,43.5L848,495.8L948.9,520.3z"/>
		</g>
		<g>
			<g>
				<path class="st10" d="M2979.1,1858.7l-1089.2,1314c-38.8,46.8-32.3,116,14.5,154.8l566.7,469.8c25.9,21.5,58.6,29,89.4,23.6
					c0-0.1,0.1-0.1,0.1-0.1c24.6-4.3,48-17.2,65.2-38l1089.2-1314c38.8-46.8,32.3-116.1-14.4-154.8l-566.7-469.8
					C3087.1,1805.4,3017.8,1811.9,2979.1,1858.7z"/>
				<path class="st1" d="M2514.3,3823.4c-16.6-4-32.4-11.8-45.9-23l-566.7-469.8c-48.4-40.1-55.1-112.2-15-160.6l1089.2-1314
					c40.2-48.4,112.2-55.2,160.6-15.1l566.7,469.8c23.5,19.4,37.9,46.9,40.8,77.2c2.8,30.3-6.3,60-25.8,83.4L2629,3785.3
					c-16.9,20.4-40.4,34.3-66.3,39.2l0,0.1l-1.5,0.3C2545.4,3827.6,2529.4,3827.1,2514.3,3823.4z M2982.2,1861.3L1893,3175.3
					c-37.2,44.9-31,111.7,13.9,149l566.7,469.8c23.9,19.8,55,28.1,85.6,22.8c0.2-0.1,0.4-0.1,0.6-0.1c24.5-4.3,46.8-17.3,62.7-36.6
					l1089.2-1314c18-21.8,26.5-49.3,23.9-77.4c-2.6-28.1-16-53.6-37.8-71.6l-566.7-469.8C3086.3,1810.1,3019.5,1816.3,2982.2,1861.3
					L2982.2,1861.3z"/>
			</g>
			<g>
				<g class="st0">
					<path class="st1" d="M2283.8,3373.9c-11.9-9.9-29.6-8.2-39.5,3.7l-39.5,47.7l120,99.5c11.9,9.9,29.6,8.2,39.5-3.7l39.5-47.7
						L2283.8,3373.9z"/>
				</g>
			</g>
			<g>
				<path class="st1" d="M2509.2,3843.3c-19.2-4.7-37.7-13.7-54-27.1l-566.7-469.8l0,0c-57.2-47.4-65.1-132.4-17.7-189.6
					l1089.2-1314c23-27.7,55.3-44.8,91.1-48.1c35.8-3.4,70.8,7.4,98.5,30.4l566.7,469.8c27.7,23,44.8,55.3,48.1,91.1
					c3.3,35.8-7.4,70.8-30.4,98.5l-1089.2,1314C2610.9,3839.4,2557.7,3855.1,2509.2,3843.3z M1920.1,3308.4l566.7,469.8
					c36.2,30,90,25,120-11.2L3696,2453c14.5-17.5,21.4-39.7,19.2-62.3c-2.1-22.7-12.9-43.2-30.5-57.7l-566.7-469.8
					c-17.5-14.5-39.7-21.4-62.3-19.2c-22.7,2.1-43.2,12.9-57.7,30.5l-1089.2,1314C1878.9,3224.5,1883.9,3278.4,1920.1,3308.4
					L1920.1,3308.4z"/>
			</g>
			<g class="st0">
				<path class="st1" d="M3023.2,1895.3L1934,3209.2c-18.5,22.3-15.4,55.5,6.9,74l229.2,190c-14.7-42.8-32.1-60.8-14.6-104.6
					c14.4-17.4,54.4-70.1,73.9-78.2c13.2-5.5,32.3-4,50.9-0.9c21.8,3.6,43.3-8.5,50.9-29.3c4.4-11.9,7.3-18.6,7.3-18.6
					s105.3-63.3,211.5-63.6c60.8-418.6,249.3-847.9,550.9-1286.6l-3.8-3.1C3075,1869.8,3041.8,1872.9,3023.2,1895.3z"/>
			</g>
			<g>
				<path class="st4" d="M3504.4,2584.3l-251.2,303l-185.7,224.1l-172.4,208l-102.4,123.4l-47.1,56.9c-5,6.1-11,10.9-17.6,14.5
					c-21.2,11.7-48.4,9.9-68.2-6.6l-163.9-135.8l-342.2-283.6c-25.9-21.4-29.5-59.9-8-85.8l263.3-317.7l185.8-224.1l64-77.2
					l102.3-123.4l143.4-173c8.3-10,19.2-16.8,30.9-19.9c18.5-5.1,39.1-1.4,54.9,11.8l179.4,148.8l326.6,270.7
					C3522.3,2520,3525.9,2558.5,3504.4,2584.3z"/>
			</g>
			<g class="st0">
				<path class="st6" d="M2744,3518.2c-21.2,11.7-48.4,9.9-68.2-6.6L2512,3375.8l-86.9-687.1l185.8-224.1L2744,3518.2z"/>
			</g>
			<g class="st0">
				<polygon class="st6" points="2960.8,3240 2858.5,3363.5 2724.6,2304.1 2826.9,2180.7 				"/>
			</g>
			<g class="st7">
				<path class="st1" d="M3505.9,2582.3c-0.4-0.4-0.9-0.8-1.3-1.2L3178,2310.4l-179.4-148.8c-15.9-13.2-36.4-16.9-54.9-11.8
					c-11.7,3.1-22.6,9.8-30.9,19.9l-143.4,173L2667,2466.2l-64,77.2l-185.8,224.1l-263.3,317.7c-0.5,0.6-1.1,1.3-1.5,2
					c-24.7-21.7-27.8-59.2-6.7-84.6l263.3-317.7l185.8-224.1l64-77.2l102.3-123.4l143.4-173c8.3-10,19.2-16.8,30.9-19.9
					c18.5-5.1,39.1-1.4,54.9,11.8l179.4,148.8l326.6,270.7C3521.6,2519.5,3525.7,2556.5,3505.9,2582.3z"/>
			</g>
			<g>
				<path class="st1" d="M3376.5,2264.2c-2.4-0.6-4.7-1.7-6.7-3.4l-122.4-101.4c-7.1-5.9-8.1-16.4-2.2-23.5
					c5.9-7.1,16.4-8.1,23.5-2.2l122.4,101.4c7.1,5.9,8.1,16.4,2.2,23.5C3389,2263.7,3382.5,2265.6,3376.5,2264.2z"/>
			</g>
			<g>
				<path class="st1" d="M3382.6,2177.7c-1.9-0.5-3.7-1.4-5.4-2.7l-46.9-38.8c-5.7-4.7-6.5-13.1-1.8-18.8c4.7-5.7,13.1-6.5,18.8-1.8
					l46.9,38.8c5.7,4.7,6.5,13.1,1.8,18.8C3392.6,2177.3,3387.4,2178.8,3382.6,2177.7z"/>
			</g>
			<g>
				
					<ellipse transform="matrix(0.3253 -0.9456 0.9456 0.3253 177.1245 4407.4854)" class="st1" cx="3177.3" cy="2079.6" rx="29.1" ry="29.1"/>
			</g>
			<g>
				<path class="st1" d="M2679.3,3540.1c-11.9-2.9-23-8.5-32.7-16.5l-506-419.4c-16.8-13.9-27.1-33.5-29.1-55.2
					c-2-21.7,4.5-42.9,18.4-59.6l758.8-915.4c13.9-16.8,33.5-27.1,55.2-29.1c21.7-2,42.9,4.5,59.6,18.4l506,419.4
					c16.8,13.9,27.1,33.5,29.1,55.2c2,21.7-4.5,42.9-18.4,59.6l-758.8,915.4c-13.9,16.8-33.5,27.1-55.2,29.1
					C2697.1,3542.9,2688,3542.2,2679.3,3540.1z M2961,2086.8c-4.3-1-8.8-1.4-13.3-1c-10.7,1-20.4,6.1-27.3,14.4l-758.8,915.4
					c-6.9,8.3-10.1,18.8-9.1,29.5c1,10.7,6.1,20.4,14.4,27.3l0,0l506,419.5c8.3,6.9,18.8,10.1,29.5,9.1c10.7-1,20.4-6.1,27.3-14.4
					l758.8-915.4c6.9-8.3,10.1-18.8,9.1-29.5c-1-10.7-6.1-20.4-14.4-27.3l-506-419.4C2972.4,2090.9,2966.9,2088.2,2961,2086.8z"/>
			</g>
			<g>
				<path class="st1" d="M2332.7,3544.3c-6.2-1.5-11.9-4.4-17-8.5l-121.2-100.5c-8.7-7.2-14-17.4-15.1-28.6
					c-1-11.2,2.3-22.2,9.5-30.9l40.8-49.3c7.2-8.7,17.4-14,28.6-15.1c11.2-1.1,22.2,2.3,30.9,9.5l121.2,100.5
					c8.7,7.2,14,17.4,15.1,28.6c1.1,11.2-2.3,22.2-9.5,30.9l-40.8,49.3c-7.2,8.7-17.4,14-28.6,15.1
					C2341.9,3545.7,2337.2,3545.3,2332.7,3544.3z M2265.6,3340c-1.5-0.4-3-0.5-4.6-0.3c-3.7,0.3-7,2.1-9.4,5l-40.8,49.3
					c-2.4,2.9-3.5,6.5-3.1,10.2c0.3,3.7,2.1,7,5,9.4l121.2,100.5l0,0c2.9,2.4,6.5,3.5,10.2,3.1c3.7-0.3,7-2.1,9.4-5l40.8-49.3
					c2.4-2.9,3.5-6.5,3.1-10.2c-0.3-3.7-2.1-7-5-9.4l-121.2-100.5C2269.5,3341.4,2267.6,3340.5,2265.6,3340z"/>
			</g>
		</g>
		<path class="st6" d="M2669.8,3016.9c-6.7-5.8-13.4-11.5-20-17.3c-4.7-5.1-9.5-10-14.1-15.2c-23.1-26.3-39.8-56.1-49.8-89.6
			c-0.9-3.2-2.5-5-5.6-6.2c-15.7-6.5-31.3-13.2-46.9-19.8c-12.7-5.4-25.3-10.8-38.7-16.5c1.8-1.1,2.9-1.9,4.1-2.6
			c23.8-14.1,47.5-28.4,71.5-42.3c4.5-2.6,6.3-5.6,6.8-10.6c4.5-41.8,19.2-79.7,43.7-113.7c30.4-42.1,70.1-72.3,119.7-88
			c82.3-26.1,158.5-12.9,227.1,39.7c37.9,29.1,64.4,67.2,79.1,112.7c22.5,70.1,15.4,137.3-21.7,201.1c-4.6,8-10.1,15.5-15.1,23.3
			c-6.2,7.2-12.4,14.3-18.5,21.5c-2.5,2.3-5,4.6-7.5,7c-38.3,35.5-83.2,57.3-135.1,64c-55.4,7.1-107.4-3.5-155.6-32.2
			C2685.1,3027.4,2677.5,3022,2669.8,3016.9z M2787.4,2978.8c6.9,3.9,12.3,7.9,18.3,10.4c33.6,13.6,53.2,8.6,74.6-14.6
			c3.4-3.7,4.3-7.4,2.2-12c-8.1-18.3-15.8-36.7-24-54.9c-4.2-9.3-9.4-11.5-19.5-9.3c-7.7,1.7-15.3,3.6-23.1,5.1
			c-11.7,2.3-16.5-0.1-22-10.9c-19.5-38.4-23.7-78.9-16.8-120.9c1.4-8.4,3.6-10.6,12.1-11.9c6.9-1,13.7-1.8,20.6-2.9
			c8.5-1.3,14.8-5,16.6-14.2c0.5-2.4,1.6-4.8,2.3-7.2c5.4-16.8,10.9-33.5,16-50.4c0.8-2.7,0.8-6.8-0.7-8.9
			c-7.8-10.7-17.5-19.3-31.5-20.1c-12.8-0.7-25,2.5-36.3,8.7c-22.2,12.2-35.2,31.6-42.7,55.3c-5.5,17.4-7.2,35.5-8.5,53.5
			c-2.3,30.5-1,60.8,5,90.8c6.4,32.2,20.4,61.1,37.9,88.4C2773.9,2962.1,2781.2,2970.6,2787.4,2978.8z"/>
		<g class="st7">
			<path class="st1" d="M463.1,2402.1c19.5,4.7,1681.2,370.7,1681.2,370.7l77.3-27.3L448.1,2315.1L463.1,2402.1z"/>
		</g>
	</g>
</g>
</svg>
