<?xml version="1.0" encoding="utf-8"?>
<!-- Generator: Adobe Illustrator 25.0.0, SVG Export Plug-In . SVG Version: 6.00 Build 0)  -->
<svg version="1.1" id="Camada_1" xmlns="http://www.w3.org/2000/svg" xmlns:xlink="http://www.w3.org/1999/xlink" x="0px" y="0px"
	 viewBox="0 0 6078.2 2520.4" style="enable-background:new 0 0 6078.2 2520.4;" xml:space="preserve">
<style type="text/css">
	.st0{fill:#0047BA;}
	.st1{fill:#3993FF;}
	.st2{fill-rule:evenodd;clip-rule:evenodd;fill:#3993FF;}
	.st3{fill-rule:evenodd;clip-rule:evenodd;fill:#0047BA;}
</style>
<g>
	<path class="st0" d="M2463.3,1560c-3.1-8.8-4.6-14-4.6-15.5c0-10.3,6.1-19.1,18.3-26.5l164.7-90.5c6.1-4.4,12.2-6.6,18.3-6.6
		c9.1,0,17.5,5.9,25.2,17.7c61,79.4,144.1,119.2,249.3,119.2c56.4,0,99.5-9.6,129.2-28.7c29.7-19.1,44.6-44.9,44.6-77.2
		c0-32.3-15.6-57.7-46.9-76.1c-31.3-18.4-85-36.4-161.2-54.1c-123.5-29.4-224.1-71-301.9-124.7c-77.8-53.7-116.6-132.8-116.6-237.2
		c0-66.2,19-126.1,57.2-179.9c38.1-53.7,92.2-95.6,162.4-125.8c70.1-30.1,150.2-45.2,240.1-45.2c210.4,0,360.5,77.2,450.5,231.7
		c3,8.8,4.6,14,4.6,15.4c0,8.8-6.1,16.9-18.3,24.3L3213.4,962c-9.1,3-15.3,4.4-18.3,4.4c-10.7,0-19.1-5.1-25.2-15.4
		c-50.3-70.6-124.3-105.9-221.8-105.9c-47.3,0-85.8,8.8-115.5,26.5c-29.7,17.7-44.6,40.5-44.6,68.4c0,29.4,14.9,51.9,44.6,67.3
		c29.7,15.4,78.9,31.3,147.5,47.4c85.4,23.6,157.8,48.5,217.3,75c59.5,26.5,110.1,64.4,152.1,113.7c41.9,49.3,62.9,112.9,62.9,190.9
		c0,70.6-19.4,133.5-58.3,188.7c-38.9,55.2-94.6,98.2-166.9,129.1c-72.4,30.9-157.4,46.3-255,46.3
		C2711,1798.4,2554.8,1718.9,2463.3,1560z"/>
	<path class="st0" d="M3884.4,1769.7h-247c-21.4,0-32-10.3-32-30.9V165.3c0-20.6,10.6-30.9,32-30.9h247c21.3,0,32,10.3,32,30.9
		v915.8L4360,653c10.6-10.3,23.6-15.4,38.9-15.4h315.6c9.1,0,16,1.9,20.6,5.5c4.6,3.7,6.9,7.7,6.9,12.1c0,5.9-3.8,12.5-11.4,19.9
		l-441.4,406.1l459.7,651c4.6,5.9,6.9,11.8,6.9,17.7c0,13.2-9.1,19.9-27.4,19.9h-301.9c-18.3,0-31.3-6.6-38.9-19.9l-333.9-487.7
		l-137.2,130.2v346.5C3916.4,1759.4,3905.7,1769.7,3884.4,1769.7z"/>
	<path class="st0" d="M4876.7,2253c-5.4-4.4-8.8-11.8-10.3-22.1l-22.9-203v-4.4c0-16.2,9.1-25.8,27.4-28.7l52.6-6.6
		c73.2-8.8,129.6-20.6,169.2-35.3c39.6-14.7,70.1-34.2,91.5-58.5c21.3-24.3,41.2-58.5,59.5-102.6l20.6-48.5l-462-1070.3
		c-1.5-2.9-2.3-7.3-2.3-13.2c0-14.7,9.1-22.1,27.4-22.1h279c16.8,0,28.9,8.1,36.6,24.3l285.9,745.9l274.4-745.9
		c7.6-16.2,19.8-24.3,36.6-24.3h251.6c12.2,0,20.6,3.3,25.2,9.9c4.6,6.6,4.6,15.1,0,25.4L5531.9,1858c-32,78-70.5,143.1-115.5,195.3
		c-45,52.2-104.8,95.2-179.5,129.1c-74.7,33.8-169.2,58.1-283.6,72.8l-52.6,4.4C4890,2259.6,4882,2257.4,4876.7,2253z"/>
</g>
<g>
	<path class="st1" d="M2610.8,2227.4c-13.2-6.1-23.8-15-31.6-26.8l-0.4-1.4c0-1.2,0.7-2.2,2.2-2.9l15.3-7.5c0.6-0.2,1.3-0.4,2.2-0.4
		c1.5,0,2.6,0.6,3.5,1.8c6.7,8.1,14.5,14.2,23.5,18.3c9,4.1,19.8,6.1,32.3,6.1c15.4,0,27.6-2.9,36.6-8.6c9-5.7,13.5-13,13.5-21.9
		c0-8.6-4.4-15.4-13.1-20.3c-8.7-4.9-22.5-9.5-41.4-13.8c-14.5-3.4-26.7-7-36.6-11c-9.9-3.9-18-9.3-24.2-16
		c-6.3-6.7-9.4-15.2-9.4-25.5c0-9.1,3.2-17.4,9.6-25c6.4-7.5,15.1-13.5,26.2-18c11-4.4,23.5-6.6,37.5-6.6c16.9,0,31.6,2.9,44.3,8.8
		c12.6,5.9,22.5,14.1,29.4,24.6l0.4,1.4c0,1.2-0.7,2.2-2.2,2.9l-15.7,7.2c-0.6,0.2-1.3,0.4-2.2,0.4c-0.9,0-2-0.6-3.5-1.8
		c-5.5-7.4-12.4-12.9-20.5-16.5c-8.1-3.6-18.2-5.4-30.1-5.4c-13.1,0-24,2.5-32.7,7.4c-8.7,4.9-13.1,11.4-13.1,19.6
		c0,8.4,4.1,14.7,12.2,19c8.1,4.3,20.6,8.4,37.5,12.2c23.5,5.7,41.9,12.7,55.2,20.8c13.2,8.1,19.8,19.9,19.8,35.2
		c0,10.3-3.3,19.5-9.8,27.5c-6.5,8-15.7,14.3-27.5,18.7s-25.1,6.6-39.9,6.6C2639.8,2236.6,2624,2233.5,2610.8,2227.4z"/>
	<path class="st1" d="M2817.6,2224.3c-15.8-8.1-28.1-19.4-36.8-33.8c-8.7-14.4-13.1-30.6-13.1-48.8c0-17.5,4.3-33.4,12.9-47.8
		c8.6-14.4,20.6-25.6,36-33.8c15.4-8.1,32.7-12.2,51.9-12.2c17.4,0,33.1,3.5,47.1,10.4c14,6.9,24.9,16.8,32.7,29.4
		c7.8,12.7,11.8,27.2,11.8,43.5c0,2.4-0.3,6.2-0.9,11.5c-0.6,1.9-1.9,2.9-3.9,2.9H2796c0.6,13.9,4.2,26,10.9,36.5
		c6.7,10.4,15.7,18.4,27,24.1c11.3,5.6,24,8.4,37.9,8.4c13.4,0,25.1-2.2,35.1-6.6c10-4.4,18.2-10.7,24.6-18.9
		c1.7-1.4,3.6-1.8,5.7-1.1l15.7,6.8c2.3,1.2,3.1,2.4,2.2,3.6c-7.6,11.3-18.5,20.4-32.9,27.5c-14.4,7.1-31.2,10.6-50.4,10.6
		C2851.6,2236.6,2833.5,2232.5,2817.6,2224.3z M2932.1,2124.9c-1.2-17.2-7.6-30.8-19.4-40.6c-11.8-9.8-26.8-14.7-45.1-14.7
		c-18,0-33.4,5-46.2,15.1c-12.8,10.1-20.8,23.5-24,40.2H2932.1z"/>
	<path class="st1" d="M3026.4,2309.8l-2.2-13.6l-0.4-1.8c0-0.7,0.4-1.3,1.1-1.6c0.7-0.4,1.5-0.7,2.4-0.9l39.2-4.3
		c23.8-2.6,42.6-6.5,56.2-11.5c13.7-5,23.3-11.6,29-19.6c5.7-8,8.5-18.3,8.5-30.7v-22.3c-17.7,19.6-40.6,29.4-68.5,29.4
		c-18.6,0-35.2-3.7-49.9-11.1c-14.7-7.4-26.2-18-34.4-31.8c-8.3-13.8-12.4-29.7-12.4-47.9c0-18.4,4.4-34.8,13.3-49
		c8.9-14.2,20.9-25.3,36.2-33.2s32.3-11.9,51.2-11.9c13.9,0,26.7,2.6,38.4,7.7c11.6,5.2,20.6,12,27,20.7v-21.9c0-1,0.4-1.7,1.1-2.3
		c0.7-0.6,1.7-0.9,2.8-0.9h19.2c1.2,0,2.1,0.3,2.8,0.9c0.7,0.6,1.1,1.4,1.1,2.3v171.3c0,16.3-3.9,29.9-11.6,40.9
		c-7.7,11-20.1,20-37.3,26.9c-17.2,6.9-40.3,12-69.3,15.1l-35.8,4l-4.4,0.4C3028.2,2313.1,3027,2312,3026.4,2309.8z M3132.6,2201.9
		c11.8-6.3,21-14.8,27.7-25.3v-56.4c0-9.6-3-18.3-8.9-26s-13.8-13.8-23.5-18.1c-9.7-4.3-19.8-6.5-30.3-6.5c-14.2,0-27,3.1-38.1,9.2
		c-11.2,6.1-19.9,14.6-26.2,25.5c-6.3,10.9-9.4,23.5-9.4,37.9c0,13.6,2.9,25.7,8.7,36.3c5.8,10.5,13.9,18.7,24.4,24.4
		c10.5,5.7,22.7,8.6,36.6,8.6C3107.8,2211.4,3120.8,2208.2,3132.6,2201.9z"/>
	<path class="st1" d="M3271,2217.7c-13.5-12.3-20.3-29.1-20.3-50.5v-112.8c0-1,0.4-1.7,1.1-2.3c0.7-0.6,1.7-0.9,2.8-0.9h20.5
		c1.2,0,2.1,0.3,2.8,0.9c0.7,0.6,1.1,1.4,1.1,2.3v111c0,16,4.6,28.3,13.7,36.6c9.2,8.4,22.2,12.6,39,12.6c13.4,0,25.9-3.2,37.5-9.5
		c11.6-6.3,21.9-14.8,31-25.3v-125.3c0-1,0.4-1.7,1.1-2.3c0.7-0.6,1.7-0.9,2.8-0.9h20.5c1.2,0,2.1,0.3,2.8,0.9
		c0.7,0.6,1.1,1.4,1.1,2.3v175.3c0,1-0.4,1.7-1.1,2.3c-0.7,0.6-1.7,0.9-2.8,0.9h-18.7c-1.2,0-2.1-0.3-2.8-0.9
		c-0.7-0.6-1.1-1.4-1.1-2.3v-26.9c-8.7,10.1-19.2,18.1-31.4,24.2c-12.2,6.1-26.2,9.2-41.9,9.2
		C3303.8,2236.2,3284.5,2230,3271,2217.7z"/>
	<path class="st1" d="M3519.7,2232.1c-0.7,0.6-1.7,0.9-2.8,0.9h-20.5c-1.2,0-2.1-0.3-2.8-0.9c-0.7-0.6-1.1-1.4-1.1-2.3v-175.3
		c0-1,0.4-1.7,1.1-2.3c0.7-0.6,1.7-0.9,2.8-0.9h19.2c1.2,0,2.1,0.3,2.8,0.9c0.7,0.6,1.1,1.4,1.1,2.3v33.4
		c25.6-20.3,51.2-33.6,76.7-39.9h0.9c2,0,3.3,0.8,3.9,2.5l6.1,17.2v0.7c0,1.9-1,3-3.1,3.2c-31.7,6.7-59.4,19-83.3,37v121
		C3520.8,2230.7,3520.4,2231.5,3519.7,2232.1z"/>
	<path class="st1" d="M3656.6,2230.1c-10.8-4.3-19-10.3-24.8-18c-5.8-7.7-8.7-16.4-8.7-26.2c0-13.9,6.2-25,18.5-33.4
		c12.3-8.4,29.6-13.8,51.7-16.2l70.2-7.9v-15.8c0-13.2-4.7-23.6-14-31.4c-9.3-7.8-22.2-11.7-38.8-11.7c-25.6,0-44.5,9.6-56.7,28.7
		c-1.5,1.9-3.2,2.4-5.2,1.4l-16.6-6.1c-2.6-1-3.2-2.4-1.7-4.3c7.6-12.4,18.2-22.4,32-30c13.8-7.5,30.2-11.3,49.1-11.3
		c16,0,30.1,2.8,42.3,8.3c12.2,5.5,21.6,13.1,28.1,22.8c6.5,9.7,9.8,20.7,9.8,32.9v49.2c0,12,1.5,22.6,4.4,32
		c2.9,9.3,8.4,19.6,16.6,30.9l0.4,1.4c0,1.2-0.7,2.2-2.2,2.9l-17,6.8c-1.2,0.5-2,0.7-2.6,0.7c-1.2,0-2.2-0.6-3.1-1.8
		c-4.9-6.7-8.9-12.6-11.8-17.6c-2.9-5-5.1-10.2-6.5-15.4c-7.8,10.5-18.3,19.1-31.4,25.7c-13.1,6.6-28.2,9.9-45.3,9.9
		C3679.5,2236.6,3667.3,2234.4,3656.6,2230.1z M3735.3,2205.8c12.1-6.6,21.4-15.5,28.1-26.8v-32l-66.3,8.3
		c-16.3,1.9-28.1,5.3-35.3,10.2c-7.3,4.9-10.9,11.6-10.9,19.9c0,9.6,4,17,12,22.3c8,5.3,18.7,7.9,32,7.9
		C3709.8,2215.7,3723.2,2212.4,3735.3,2205.8z"/>
	<path class="st1" d="M3885.4,2224.7c-15-7.9-26.7-19-35.3-33.4c-8.6-14.4-12.9-30.8-12.9-49.2c0-18,4.4-34.1,13.1-48.5
		c8.7-14.4,20.7-25.6,36-33.6c15.3-8,32.5-12,51.7-12c14.8,0,27.8,2.5,39,7.4c11.2,4.9,20.3,11.6,27.2,19.9v-105.2
		c0-1,0.4-1.7,1.1-2.3c0.7-0.6,1.7-0.9,2.8-0.9h20.5c1.2,0,2.1,0.3,2.8,0.9c0.7,0.6,1.1,1.4,1.1,2.3v259.7c0,1-0.4,1.7-1.1,2.3
		c-0.7,0.6-1.7,0.9-2.8,0.9h-19.2c-1.2,0-2.1-0.3-2.8-0.9c-0.7-0.6-1.1-1.4-1.1-2.3v-24.1c-8.1,9.3-18,16.8-29.7,22.4
		c-11.6,5.6-25.1,8.4-40.5,8.4C3917,2236.6,3900.4,2232.6,3885.4,2224.7z M3975.9,2205.1c11.3-6.3,20.8-14.9,28.3-25.7v-56.4
		c0-10.5-2.8-19.8-8.5-27.8c-5.7-8-13.5-14.3-23.3-18.9c-9.9-4.5-20.9-6.8-33.1-6.8c-14.2,0-26.8,3.1-37.7,9.2
		c-10.9,6.1-19.5,14.7-25.7,25.7c-6.3,11-9.4,23.6-9.4,37.7c0,13.9,3,26.3,8.9,37.4c6,11,14.3,19.6,25.1,25.9
		c10.8,6.2,23.1,9.3,37.1,9.3C3951.8,2214.6,3964.6,2211.5,3975.9,2205.1z"/>
	<path class="st1" d="M4131.3,2224.3c-15.7-8.1-27.8-19.4-36.4-33.9c-8.6-14.5-12.9-30.7-12.9-48.7c0-17.7,4.4-33.7,13.1-47.9
		c8.7-14.2,20.9-25.4,36.6-33.6c15.7-8.1,33.4-12.2,53.2-12.2c20.1,0,37.9,4.1,53.4,12.2c15.5,8.1,27.6,19.3,36.2,33.6
		c8.6,14.2,12.9,30.3,12.9,48.3c0,17.7-4.4,33.8-13.1,48.1c-8.7,14.4-20.9,25.7-36.6,33.9s-33.3,12.4-52.8,12.4
		C4164.9,2236.6,4147,2232.5,4131.3,2224.3z M4222.6,2205.7c11.2-6,19.9-14.4,26.2-25.3c6.2-10.9,9.4-23.6,9.4-38.3
		c0-14.4-3.1-27.1-9.4-38.1c-6.3-11-15-19.5-26.2-25.5c-11.2-6-23.8-9-37.7-9c-14.2,0-27,2.9-38.2,8.8
		c-11.2,5.9-19.9,14.3-26.2,25.3c-6.3,11-9.4,23.7-9.4,38.1c0,14.6,3.2,27.4,9.6,38.4c6.4,11,15.2,19.5,26.4,25.5
		c11.2,6,23.8,9,37.7,9C4198.9,2214.6,4211.5,2211.7,4222.6,2205.7z"/>
	<path class="st1" d="M4364.1,2232.1c-0.7,0.6-1.7,0.9-2.8,0.9h-20.5c-1.2,0-2.1-0.3-2.8-0.9c-0.7-0.6-1.1-1.4-1.1-2.3v-175.3
		c0-1,0.4-1.7,1.1-2.3c0.7-0.6,1.7-0.9,2.8-0.9h19.2c1.2,0,2.1,0.3,2.8,0.9c0.7,0.6,1.1,1.4,1.1,2.3v33.4
		c25.6-20.3,51.2-33.6,76.7-39.9h0.9c2,0,3.3,0.8,3.9,2.5l6.1,17.2v0.7c0,1.9-1,3-3.1,3.2c-31.7,6.7-59.4,19-83.3,37v121
		C4365.2,2230.7,4364.8,2231.5,4364.1,2232.1z"/>
	<path class="st1" d="M4501,2230.1c-10.8-4.3-19-10.3-24.8-18c-5.8-7.7-8.7-16.4-8.7-26.2c0-13.9,6.2-25,18.5-33.4
		c12.3-8.4,29.6-13.8,51.7-16.2l70.2-7.9v-15.8c0-13.2-4.7-23.6-14-31.4c-9.3-7.8-22.2-11.7-38.8-11.7c-25.6,0-44.5,9.6-56.7,28.7
		c-1.5,1.9-3.2,2.4-5.2,1.4l-16.6-6.1c-2.6-1-3.2-2.4-1.7-4.3c7.6-12.4,18.2-22.4,32-30c13.8-7.5,30.2-11.3,49.1-11.3
		c16,0,30.1,2.8,42.3,8.3c12.2,5.5,21.6,13.1,28.1,22.8c6.5,9.7,9.8,20.7,9.8,32.9v49.2c0,12,1.5,22.6,4.4,32
		c2.9,9.3,8.4,19.6,16.6,30.9l0.4,1.4c0,1.2-0.7,2.2-2.2,2.9l-17,6.8c-1.2,0.5-2,0.7-2.6,0.7c-1.2,0-2.2-0.6-3.1-1.8
		c-4.9-6.7-8.9-12.6-11.8-17.6c-2.9-5-5.1-10.2-6.5-15.4c-7.8,10.5-18.3,19.1-31.4,25.7c-13.1,6.6-28.2,9.9-45.3,9.9
		C4523.9,2236.6,4511.7,2234.4,4501,2230.1z M4579.7,2205.8c12.1-6.6,21.4-15.5,28.1-26.8v-32l-66.3,8.3
		c-16.3,1.9-28.1,5.3-35.3,10.2c-7.3,4.9-10.9,11.6-10.9,19.9c0,9.6,4,17,12,22.3c8,5.3,18.7,7.9,32,7.9
		C4554.1,2215.7,4567.6,2212.4,4579.7,2205.8z"/>
</g>
<path class="st2" d="M1864.1,1259.7V733c0-123.4-61.2-229.4-168.1-291.1l-560.7-323.7c-106.9-61.7-229.3-61.7-336.2,0L223.3,450.9
	c116-67.2,232.4-4.3,325.5,49.5l58.5,33.8L1864.1,1259.7L1864.1,1259.7z"/>
<path class="st3" d="M69.1,686.9c-22.4,183.3,82.1,336.7,235.5,425.2L690,1334.6l0-362.4c0-207.8,72.6-313.1,186.5-282.6
	L548.8,500.3c-93.1-53.8-209.5-116.7-325.5-49.5C232.2,445.5,88.7,526,69.1,686.9L69.1,686.9z"/>
<path class="st2" d="M66,1260.2V1787c0,123.4,61.2,229.4,168.1,291.1l560.7,323.7c106.9,61.7,229.3,61.7,336.2,0l575.9-332.7
	c-116,67.2-232.4,4.3-325.5-49.5l-58.5-33.8L66,1260.2L66,1260.2z"/>
<path class="st3" d="M1861.1,1833.1c22.4-183.3-82.1-336.7-235.5-425.2l-385.5-222.6l0,362.4c0,108.4-26.9,325.4-186.5,282.6
	l327.8,189.2c93.1,53.8,209.5,116.7,325.5,49.5C1698,2074.5,1841.4,1994,1861.1,1833.1L1861.1,1833.1z"/>
</svg>
