<?xml version="1.0" encoding="utf-8"?>
<!-- Generator: Adobe Illustrator 25.0.0, SVG Export Plug-In . SVG Version: 6.00 Build 0)  -->
<svg version="1.1" id="Camada_1" xmlns="http://www.w3.org/2000/svg" xmlns:xlink="http://www.w3.org/1999/xlink" x="0px" y="0px"
	 viewBox="0 0 1500 712" style="enable-background:new 0 0 1500 712;" xml:space="preserve">
<style type="text/css">
	.st0{fill:#FFFFFF;}
	.st1{fill:#3993FF;}
	.st2{fill-rule:evenodd;clip-rule:evenodd;fill:#3993FF;}
	.st3{fill-rule:evenodd;clip-rule:evenodd;fill:#FFFFFF;}
</style>
<g>
	<path class="st0" d="M618.4,425.9c-0.7-2.1-1.1-3.3-1.1-3.6c0-2.4,1.4-4.5,4.3-6.2l38.5-21.2c1.4-1,2.8-1.5,4.3-1.5
		c2.1,0,4.1,1.4,5.9,4.1c14.3,18.6,33.7,27.9,58.3,27.9c13.2,0,23.3-2.2,30.2-6.7c7-4.5,10.4-10.5,10.4-18.1c0-7.6-3.7-13.5-11-17.8
		c-7.3-4.3-19.9-8.5-37.7-12.6c-28.9-6.9-52.4-16.6-70.6-29.2c-18.2-12.6-27.3-31-27.3-55.5c0-15.5,4.5-29.5,13.4-42.1
		c8.9-12.6,21.6-22.4,38-29.4c16.4-7,35.1-10.6,56.1-10.6c49.2,0,84.3,18.1,105.3,54.2c0.7,2.1,1.1,3.3,1.1,3.6c0,2.1-1.4,4-4.3,5.7
		l-38.5,19.1c-2.1,0.7-3.6,1-4.3,1c-2.5,0-4.5-1.2-5.9-3.6c-11.8-16.5-29.1-24.8-51.9-24.8c-11.1,0-20,2.1-27,6.2
		c-7,4.1-10.4,9.5-10.4,16c0,6.9,3.5,12.1,10.4,15.7c7,3.6,18.4,7.3,34.5,11.1c20,5.5,36.9,11.4,50.8,17.5
		c13.9,6.2,25.7,15.1,35.6,26.6c9.8,11.5,14.7,26.4,14.7,44.6c0,16.5-4.5,31.2-13.6,44.1c-9.1,12.9-22.1,23-39,30.2
		c-16.9,7.2-36.8,10.8-59.6,10.8C676.3,481.6,639.8,463.1,618.4,425.9z"/>
	<path class="st0" d="M950.7,474.9h-57.7c-5,0-7.5-2.4-7.5-7.2V99.8c0-4.8,2.5-7.2,7.5-7.2h57.7c5,0,7.5,2.4,7.5,7.2V314
		l103.7-100.1c2.5-2.4,5.5-3.6,9.1-3.6h73.8c2.1,0,3.7,0.4,4.8,1.3c1.1,0.9,1.6,1.8,1.6,2.8c0,1.4-0.9,2.9-2.7,4.6L1045.3,314
		l107.5,152.2c1.1,1.4,1.6,2.8,1.6,4.1c0,3.1-2.1,4.6-6.4,4.6h-70.6c-4.3,0-7.3-1.5-9.1-4.6l-78.1-114l-32.1,30.4v81
		C958.1,472.5,955.6,474.9,950.7,474.9z"/>
	<path class="st0" d="M1182.7,587.9c-1.3-1-2.1-2.8-2.4-5.2l-5.3-47.5v-1c0-3.8,2.1-6,6.4-6.7l12.3-1.5c17.1-2.1,30.3-4.8,39.6-8.3
		c9.3-3.4,16.4-8,21.4-13.7c5-5.7,9.6-13.7,13.9-24l4.8-11.4l-108-250.2c-0.4-0.7-0.5-1.7-0.5-3.1c0-3.4,2.1-5.2,6.4-5.2h65.2
		c3.9,0,6.8,1.9,8.6,5.7l66.8,174.4l64.2-174.4c1.8-3.8,4.6-5.7,8.6-5.7h58.8c2.8,0,4.8,0.8,5.9,2.3c1.1,1.5,1.1,3.5,0,5.9
		l-113.3,277.1c-7.5,18.2-16.5,33.4-27,45.7c-10.5,12.2-24.5,22.3-42,30.2c-17.5,7.9-39.6,13.6-66.3,17l-12.3,1
		C1185.8,589.5,1183.9,589,1182.7,587.9z"/>
</g>
<g>
	<path class="st1" d="M652.9,581.9c-3.1-1.4-5.6-3.5-7.4-6.3l-0.1-0.3c0-0.3,0.2-0.5,0.5-0.7l3.6-1.8c0.1-0.1,0.3-0.1,0.5-0.1
		c0.3,0,0.6,0.1,0.8,0.4c1.6,1.9,3.4,3.3,5.5,4.3c2.1,1,4.6,1.4,7.5,1.4c3.6,0,6.5-0.7,8.6-2c2.1-1.3,3.2-3.1,3.2-5.1
		c0-2-1-3.6-3.1-4.7c-2-1.1-5.3-2.2-9.7-3.2c-3.4-0.8-6.3-1.6-8.6-2.6c-2.3-0.9-4.2-2.2-5.7-3.7c-1.5-1.6-2.2-3.6-2.2-6
		c0-2.1,0.7-4.1,2.2-5.8c1.5-1.8,3.5-3.2,6.1-4.2c2.6-1,5.5-1.6,8.8-1.6c3.9,0,7.4,0.7,10.3,2.1c3,1.4,5.2,3.3,6.9,5.8l0.1,0.3
		c0,0.3-0.2,0.5-0.5,0.7l-3.7,1.7c-0.1,0.1-0.3,0.1-0.5,0.1c-0.2,0-0.5-0.1-0.8-0.4c-1.3-1.7-2.9-3-4.8-3.9c-1.9-0.8-4.2-1.3-7-1.3
		c-3.1,0-5.6,0.6-7.6,1.7c-2,1.1-3.1,2.7-3.1,4.6c0,2,1,3.4,2.9,4.5c1.9,1,4.8,2,8.8,2.9c5.5,1.3,9.8,3,12.9,4.9
		c3.1,1.9,4.6,4.6,4.6,8.2c0,2.4-0.8,4.5-2.3,6.4c-1.5,1.9-3.7,3.3-6.4,4.4c-2.8,1-5.9,1.6-9.3,1.6
		C659.7,584.1,656,583.4,652.9,581.9z"/>
	<path class="st1" d="M701.3,581.2c-3.7-1.9-6.6-4.5-8.6-7.9c-2-3.4-3.1-7.2-3.1-11.4c0-4.1,1-7.8,3-11.2c2-3.4,4.8-6,8.4-7.9
		c3.6-1.9,7.6-2.9,12.1-2.9c4.1,0,7.7,0.8,11,2.4c3.3,1.6,5.8,3.9,7.6,6.9c1.8,3,2.8,6.4,2.8,10.2c0,0.6-0.1,1.5-0.2,2.7
		c-0.1,0.4-0.4,0.7-0.9,0.7h-37.2c0.1,3.2,1,6.1,2.5,8.5c1.6,2.4,3.7,4.3,6.3,5.6c2.7,1.3,5.6,2,8.9,2c3.1,0,5.9-0.5,8.2-1.6
		c2.3-1,4.3-2.5,5.8-4.4c0.4-0.3,0.8-0.4,1.3-0.3l3.7,1.6c0.5,0.3,0.7,0.6,0.5,0.8c-1.8,2.6-4.3,4.8-7.7,6.4
		c-3.4,1.7-7.3,2.5-11.8,2.5C709.2,584.1,705,583.1,701.3,581.2z M728,558c-0.3-4-1.8-7.2-4.5-9.5c-2.8-2.3-6.3-3.4-10.6-3.4
		c-4.2,0-7.8,1.2-10.8,3.5c-3,2.4-4.9,5.5-5.6,9.4H728z"/>
	<path class="st1" d="M750.1,601.2l-0.5-3.2l-0.1-0.4c0-0.2,0.1-0.3,0.3-0.4c0.2-0.1,0.4-0.2,0.6-0.2l9.2-1c5.6-0.6,10-1.5,13.2-2.7
		c3.2-1.2,5.5-2.7,6.8-4.6c1.3-1.9,2-4.3,2-7.2v-5.2c-4.1,4.6-9.5,6.9-16,6.9c-4.4,0-8.2-0.9-11.7-2.6c-3.4-1.7-6.1-4.2-8.1-7.4
		c-1.9-3.2-2.9-7-2.9-11.2c0-4.3,1-8.1,3.1-11.5c2.1-3.3,4.9-5.9,8.5-7.8c3.6-1.8,7.6-2.8,12-2.8c3.3,0,6.3,0.6,9,1.8
		c2.7,1.2,4.8,2.8,6.3,4.8v-5.1c0-0.2,0.1-0.4,0.3-0.5c0.2-0.1,0.4-0.2,0.7-0.2h4.5c0.3,0,0.5,0.1,0.7,0.2c0.2,0.1,0.3,0.3,0.3,0.5
		v40.1c0,3.8-0.9,7-2.7,9.6c-1.8,2.6-4.7,4.7-8.7,6.3c-4,1.6-9.4,2.8-16.2,3.5l-8.4,0.9l-1,0.1C750.5,602,750.2,601.7,750.1,601.2z
		 M774.9,576c2.8-1.5,4.9-3.5,6.5-5.9v-13.2c0-2.2-0.7-4.3-2.1-6.1s-3.2-3.2-5.5-4.2c-2.3-1-4.6-1.5-7.1-1.5c-3.3,0-6.3,0.7-8.9,2.1
		c-2.6,1.4-4.7,3.4-6.1,6c-1.5,2.5-2.2,5.5-2.2,8.9c0,3.2,0.7,6,2,8.5c1.4,2.5,3.3,4.4,5.7,5.7c2.4,1.3,5.3,2,8.6,2
		C769.1,578.2,772.1,577.5,774.9,576z"/>
	<path class="st1" d="M807.3,579.7c-3.2-2.9-4.7-6.8-4.7-11.8v-26.4c0-0.2,0.1-0.4,0.3-0.5c0.2-0.1,0.4-0.2,0.7-0.2h4.8
		c0.3,0,0.5,0.1,0.7,0.2c0.2,0.1,0.3,0.3,0.3,0.5v25.9c0,3.8,1.1,6.6,3.2,8.6c2.1,2,5.2,2.9,9.1,2.9c3.1,0,6-0.7,8.8-2.2
		c2.7-1.5,5.1-3.5,7.2-5.9v-29.3c0-0.2,0.1-0.4,0.3-0.5c0.2-0.1,0.4-0.2,0.7-0.2h4.8c0.3,0,0.5,0.1,0.7,0.2c0.2,0.1,0.3,0.3,0.3,0.5
		v41c0,0.2-0.1,0.4-0.3,0.5c-0.2,0.1-0.4,0.2-0.7,0.2h-4.4c-0.3,0-0.5-0.1-0.7-0.2c-0.2-0.1-0.3-0.3-0.3-0.5v-6.3
		c-2,2.4-4.5,4.2-7.3,5.7c-2.9,1.4-6.1,2.1-9.8,2.1C814.9,584,810.4,582.6,807.3,579.7z"/>
	<path class="st1" d="M865.4,583c-0.2,0.1-0.4,0.2-0.7,0.2h-4.8c-0.3,0-0.5-0.1-0.7-0.2c-0.2-0.1-0.3-0.3-0.3-0.5v-41
		c0-0.2,0.1-0.4,0.3-0.5c0.2-0.1,0.4-0.2,0.7-0.2h4.5c0.3,0,0.5,0.1,0.7,0.2c0.2,0.1,0.3,0.3,0.3,0.5v7.8c6-4.8,12-7.9,17.9-9.3h0.2
		c0.5,0,0.8,0.2,0.9,0.6l1.4,4v0.2c0,0.4-0.2,0.7-0.7,0.8c-7.4,1.6-13.9,4.5-19.5,8.6v28.3C865.7,582.7,865.6,582.9,865.4,583z"/>
	<path class="st1" d="M897.4,582.6c-2.5-1-4.5-2.4-5.8-4.2c-1.4-1.8-2-3.8-2-6.1c0-3.2,1.4-5.8,4.3-7.8c2.9-2,6.9-3.2,12.1-3.8
		l16.4-1.8v-3.7c0-3.1-1.1-5.5-3.3-7.3c-2.2-1.8-5.2-2.7-9.1-2.7c-6,0-10.4,2.2-13.3,6.7c-0.3,0.4-0.7,0.6-1.2,0.3l-3.9-1.4
		c-0.6-0.2-0.7-0.6-0.4-1c1.8-2.9,4.3-5.2,7.5-7c3.2-1.8,7.1-2.6,11.5-2.6c3.7,0,7,0.6,9.9,1.9c2.9,1.3,5,3.1,6.6,5.3
		c1.5,2.3,2.3,4.8,2.3,7.7v11.5c0,2.8,0.3,5.3,1,7.5c0.7,2.2,2,4.6,3.9,7.2l0.1,0.3c0,0.3-0.2,0.5-0.5,0.7l-4,1.6
		c-0.3,0.1-0.5,0.2-0.6,0.2c-0.3,0-0.5-0.1-0.7-0.4c-1.2-1.6-2.1-2.9-2.8-4.1c-0.7-1.2-1.2-2.4-1.5-3.6c-1.8,2.5-4.3,4.5-7.3,6
		c-3.1,1.5-6.6,2.3-10.6,2.3C902.8,584.1,899.9,583.6,897.4,582.6z M915.8,576.9c2.8-1.5,5-3.6,6.6-6.3v-7.5l-15.5,1.9
		c-3.8,0.4-6.6,1.2-8.3,2.4c-1.7,1.1-2.5,2.7-2.5,4.7c0,2.2,0.9,4,2.8,5.2c1.9,1.2,4.4,1.8,7.5,1.8
		C909.8,579.2,913,578.5,915.8,576.9z"/>
	<path class="st1" d="M950.9,581.3c-3.5-1.8-6.3-4.5-8.3-7.8c-2-3.4-3-7.2-3-11.5c0-4.2,1-8,3.1-11.3c2-3.4,4.8-6,8.4-7.9
		c3.6-1.9,7.6-2.8,12.1-2.8c3.5,0,6.5,0.6,9.1,1.7c2.6,1.1,4.7,2.7,6.4,4.7v-24.6c0-0.2,0.1-0.4,0.3-0.5c0.2-0.1,0.4-0.2,0.7-0.2
		h4.8c0.3,0,0.5,0.1,0.7,0.2c0.2,0.1,0.3,0.3,0.3,0.5v60.7c0,0.2-0.1,0.4-0.3,0.5c-0.2,0.1-0.4,0.2-0.7,0.2h-4.5
		c-0.3,0-0.5-0.1-0.7-0.2c-0.2-0.1-0.3-0.3-0.3-0.5v-5.6c-1.9,2.2-4.2,3.9-6.9,5.2c-2.7,1.3-5.9,2-9.5,2
		C958.3,584.1,954.4,583.2,950.9,581.3z M972.1,576.7c2.7-1.5,4.9-3.5,6.6-6v-13.2c0-2.5-0.7-4.6-2-6.5c-1.3-1.9-3.1-3.3-5.5-4.4
		c-2.3-1.1-4.9-1.6-7.7-1.6c-3.3,0-6.3,0.7-8.8,2.1c-2.5,1.4-4.6,3.4-6,6c-1.5,2.6-2.2,5.5-2.2,8.8c0,3.2,0.7,6.2,2.1,8.7
		c1.4,2.6,3.3,4.6,5.9,6c2.5,1.5,5.4,2.2,8.7,2.2C966.4,579,969.4,578.2,972.1,576.7z"/>
	<path class="st1" d="M1008.4,581.2c-3.7-1.9-6.5-4.5-8.5-7.9c-2-3.4-3-7.2-3-11.4c0-4.1,1-7.9,3.1-11.2c2-3.3,4.9-5.9,8.6-7.9
		c3.7-1.9,7.8-2.9,12.4-2.9c4.7,0,8.9,1,12.5,2.9c3.6,1.9,6.5,4.5,8.5,7.9c2,3.3,3,7.1,3,11.3c0,4.1-1,7.9-3.1,11.3
		c-2,3.4-4.9,6-8.6,7.9s-7.8,2.9-12.3,2.9C1016.2,584.1,1012.1,583.1,1008.4,581.2z M1029.7,576.9c2.6-1.4,4.7-3.4,6.1-5.9
		c1.5-2.5,2.2-5.5,2.2-8.9c0-3.4-0.7-6.3-2.2-8.9c-1.5-2.6-3.5-4.6-6.1-6c-2.6-1.4-5.6-2.1-8.8-2.1c-3.3,0-6.3,0.7-8.9,2.1
		c-2.6,1.4-4.7,3.3-6.1,5.9c-1.5,2.6-2.2,5.5-2.2,8.9c0,3.4,0.7,6.4,2.2,9c1.5,2.6,3.6,4.6,6.2,6c2.6,1.4,5.6,2.1,8.8,2.1
		C1024.2,579,1027.1,578.3,1029.7,576.9z"/>
	<path class="st1" d="M1062.8,583c-0.2,0.1-0.4,0.2-0.7,0.2h-4.8c-0.3,0-0.5-0.1-0.7-0.2c-0.2-0.1-0.3-0.3-0.3-0.5v-41
		c0-0.2,0.1-0.4,0.3-0.5c0.2-0.1,0.4-0.2,0.7-0.2h4.5c0.3,0,0.5,0.1,0.7,0.2c0.2,0.1,0.3,0.3,0.3,0.5v7.8c6-4.8,12-7.9,17.9-9.3h0.2
		c0.5,0,0.8,0.2,0.9,0.6l1.4,4v0.2c0,0.4-0.2,0.7-0.7,0.8c-7.4,1.6-13.9,4.5-19.5,8.6v28.3C1063.1,582.7,1063,582.9,1062.8,583z"/>
	<path class="st1" d="M1094.8,582.6c-2.5-1-4.5-2.4-5.8-4.2c-1.4-1.8-2-3.8-2-6.1c0-3.2,1.4-5.8,4.3-7.8c2.9-2,6.9-3.2,12.1-3.8
		l16.4-1.8v-3.7c0-3.1-1.1-5.5-3.3-7.3c-2.2-1.8-5.2-2.7-9.1-2.7c-6,0-10.4,2.2-13.3,6.7c-0.3,0.4-0.7,0.6-1.2,0.3l-3.9-1.4
		c-0.6-0.2-0.7-0.6-0.4-1c1.8-2.9,4.3-5.2,7.5-7c3.2-1.8,7.1-2.6,11.5-2.6c3.7,0,7,0.6,9.9,1.9c2.9,1.3,5,3.1,6.6,5.3
		c1.5,2.3,2.3,4.8,2.3,7.7v11.5c0,2.8,0.3,5.3,1,7.5c0.7,2.2,2,4.6,3.9,7.2l0.1,0.3c0,0.3-0.2,0.5-0.5,0.7l-4,1.6
		c-0.3,0.1-0.5,0.2-0.6,0.2c-0.3,0-0.5-0.1-0.7-0.4c-1.2-1.6-2.1-2.9-2.8-4.1c-0.7-1.2-1.2-2.4-1.5-3.6c-1.8,2.5-4.3,4.5-7.3,6
		c-3.1,1.5-6.6,2.3-10.6,2.3C1100.2,584.1,1097.3,583.6,1094.8,582.6z M1113.2,576.9c2.8-1.5,5-3.6,6.6-6.3v-7.5l-15.5,1.9
		c-3.8,0.4-6.6,1.2-8.3,2.4c-1.7,1.1-2.5,2.7-2.5,4.7c0,2.2,0.9,4,2.8,5.2c1.9,1.2,4.4,1.8,7.5,1.8
		C1107.3,579.2,1110.4,578.5,1113.2,576.9z"/>
</g>
<path class="st2" d="M478.3,355.7V232.6c0-28.9-14.3-53.6-39.3-68.1L307.9,88.8c-25-14.4-53.6-14.4-78.6,0L94.7,166.6
	c27.1-15.7,54.3-1,76.1,11.6l13.7,7.9L478.3,355.7L478.3,355.7z"/>
<path class="st3" d="M58.7,221.8c-5.2,42.9,19.2,78.7,55.1,99.4l90.1,52l0-84.7c0-48.6,17-73.2,43.6-66.1l-76.6-44.2
	c-21.8-12.6-49-27.3-76.1-11.6C96.8,165.4,63.3,184.2,58.7,221.8L58.7,221.8z"/>
<path class="st2" d="M58,355.8V479c0,28.9,14.3,53.6,39.3,68.1l131.1,75.7c25,14.4,53.6,14.4,78.6,0l134.6-77.8
	c-27.1,15.7-54.3,1-76.1-11.6l-13.7-7.9L58,355.8L58,355.8z"/>
<path class="st3" d="M477.6,489.8c5.2-42.9-19.2-78.7-55.1-99.4l-90.1-52l0,84.7c0,25.3-6.3,76.1-43.6,66.1l76.6,44.2
	c21.8,12.6,49,27.3,76.1,11.6C439.5,546.2,473,527.4,477.6,489.8L477.6,489.8z"/>
</svg>
