<?xml version="1.0" encoding="utf-8"?>
<!-- Generator: Adobe Illustrator 25.0.0, SVG Export Plug-In . SVG Version: 6.00 Build 0)  -->
<svg version="1.1" id="Layer_1" xmlns="http://www.w3.org/2000/svg" xmlns:xlink="http://www.w3.org/1999/xlink" x="0px" y="0px"
	 viewBox="0 0 288 288" style="enable-background:new 0 0 288 288;" xml:space="preserve">
<style type="text/css">
	.st0{fill:#3993FF;stroke:#FFFFFF;stroke-width:9;stroke-miterlimit:10;}
</style>
<path class="st0" d="M35.3,121.1c0-53.7,28.8-95.2,73-109.9C171.6-9.9,239.6,26.8,251,97c5.6,34.4-3.3,65.4-25.4,92.4
	c-23.9,29.2-48,58.3-71.9,87.5c-6.4,7.8-13.2,7.8-19.6,0c-25-30.4-50.2-60.6-74.8-91.2C43,165.3,35.5,141.4,35.3,121.1z M144,69.4
	c-23.7,0-42.8,19.1-42.7,42.8c0,23.4,19.2,42.5,42.7,42.5c23.4,0,42.6-19.3,42.6-42.7C186.5,88.5,167.4,69.3,144,69.4z"/>
</svg>
